<?xml version="1.0" encoding="UTF-8"?><svg id="Calque_2" xmlns="http://www.w3.org/2000/svg" viewBox="0 0 45.92 56.8"><g id="Calque_1-2"><path d="M11.57,3.09C16.17.29,22.07-.61,29.37.39h.9v.2c6.4,2,10.8,5.7,13.3,11.2h0l.2.7c1.8,5.8,2.5,11.8,2,18.2v.2c-.4,6.8-2.6,12.5-6.6,17.2-4.4,5.9-11.1,8.8-19.9,8.7h0c-9.7-.2-15.7-4.7-18-13.5h0v-.2h0C-.03,36.49-.33,30.09.37,23.59,1.37,14.29,4.97,7.59,11.17,3.39l.3-.2h0M23.47,22.39h0c0-.1,0,0,0,0,.3,2,.3,4.1,0,6.4-.2,2-.6,3.8-1.2,5.3l-.6,1.4c-.3-.4-.6-1-.8-1.7-.2-2.1,0-4.1.5-6.2h0c.5-1.8,1.1-3.5,2-5h0M12.57,4.79l-.3.2C6.57,8.89,3.27,15.19,2.27,23.79c-.7,6.3-.5,12.5.8,18.8v.2c2.1,7.8,7.5,11.8,16.2,12,8.1.1,14.3-2.5,18.4-8,3.7-4.4,5.7-9.7,6.1-16.1h0c.5-6.2,0-12.1-1.9-17.7l-.2-.5c-2.2-4.9-6.2-8.2-12-10l-.7-.2c-6.7-1-12.2-.1-16.5,2.5" fill="#85592c"/><path d="M12.57,4.79c4.2-2.6,9.7-3.4,16.5-2.5l.7.2c5.8,1.8,9.8,5.1,12,10l.2.5c1.8,5.6,2.4,11.5,1.9,17.8h0c-.4,6.3-2.4,11.6-6.1,16-4.1,5.5-10.2,8.1-18.4,8-8.7-.2-14.1-4.2-16.1-12v-.2c-1.3-6.2-1.6-12.5-.9-18.8.9-8.6,4.3-14.9,10-18.8l.3-.2M23.47,22.39h0c-.9,1.6-1.5,3.3-2,5h0c-.5,2.2-.7,4.3-.5,6.3.2.7.4,1.3.8,1.7l.6-1.4c.6-1.6,1-3.4,1.2-5.3.2-2.3.2-4.4,0-6.4h0M24.57,17.19c1.8.4,2.8,1.9,2.9,4.5.4,2.3.4,4.8,0,7.5-.3,2.4-.8,4.6-1.5,6.5-1.4,2.9-3.2,4.2-5.2,3.8-1.9-.6-3.2-2.3-3.8-5.2-.3-2.6,0-5.3.5-8,.6-2.1,1.4-4.2,2.5-6.1,1.4-2.2,2.9-3.2,4.5-3.1M6.27,24.29c-.7,5.9-.4,11.7.8,17.5,1.6,5.9,5.7,8.9,12.4,9s11.7-2,15.1-6.4c3.2-3.8,5-8.4,5.3-13.9.5-5.7,0-11.1-1.7-16.2-1.8-3.9-5-6.5-9.6-8-5.7-.8-10.3-.2-13.9,2-4.7,3.4-7.5,8.7-8.3,16" fill="#bb8044"/><path d="M6.27,24.29c.8-7.3,3.6-12.6,8.3-16,3.6-2.1,8.2-2.8,13.9-2,4.6,1.4,7.8,4.1,9.6,8,1.6,5.1,2.2,10.5,1.7,16.2-.3,5.5-2.1,10.1-5.3,13.9-3.4,4.4-8.4,6.5-15.1,6.4-6.6-.1-10.8-3.1-12.4-9-1.2-5.8-1.4-11.7-.8-17.5M24.57,17.19c-1.7,0-3.2,1-4.5,3.1-1.1,1.9-1.9,4-2.5,6.1-.6,2.7-.8,5.3-.5,8,.6,2.9,1.9,4.6,3.8,5.2,2,.4,3.7-.9,5.2-3.8.8-2,1.3-4.1,1.5-6.5.3-2.7.3-5.2,0-7.5,0-2.6-1.1-4.1-2.9-4.5" fill="#fff"/></g></svg>