<?xml version="1.0" encoding="UTF-8"?><svg id="Calque_2" xmlns="http://www.w3.org/2000/svg" viewBox="0 0 31.83 55.02"><g id="Calque_1-2"><path d="M31.71,9.5l-5,40.2h0c-.2,1.4-.8,2.5-1.7,3.5h0c-.9,1-2.1,1.5-3.5,1.8h0c-1.3.1-2.6-.1-3.8-.8h0l-9.9-5.7c-1-.6-1.8-1.4-2.3-2.5-.6-1.1-.8-2.2-.6-3.4h0l1.3-14.8-3.7-2.5h0c-1.3-1-2.1-2.2-2.4-3.8H.11c-.3-1.8,0-3.2.9-4.5h0L10.81,2.3h0c.7-1.1,1.7-1.9,3-2.3h-.1,3.9l10,3.1c1.3.4,2.4,1.2,3.2,2.5h0c.8,1.2,1.1,2.5,1,3.9h0M29.71,9.2c0-1-.1-1.9-.7-2.7-.5-.8-1.2-1.4-2.2-1.6l-10.1-3.2h-2.5c-.9.3-1.5.9-2,1.6L2.41,18.1c-.6.9-.8,1.9-.6,2.9.2,1.1.7,1.9,1.6,2.6l4.7,3.2-1.4,16.1c0,.8,0,1.5.4,2.2s.9,1.3,1.6,1.7l9.9,5.7c.8.4,1.7.6,2.6.5s1.7-.5,2.3-1.2c.6-.6,1-1.4,1.2-2.3l5-40.2" fill="#85592c"/><path d="M29.71,9.2l-5,40.2c-.1.9-.5,1.7-1.2,2.3-.6.7-1.4,1.1-2.3,1.2-.9,0-1.8,0-2.6-.5l-9.9-5.7c-.7-.4-1.2-1-1.6-1.7s-.5-1.4-.4-2.2l1.4-16.1-4.7-3.2c-.9-.6-1.4-1.5-1.6-2.6-.2-1.1,0-2,.6-2.9L12.21,3.2c.5-.7,1.1-1.3,2-1.6h2.5l10.1,3.1c.9.3,1.6.8,2.2,1.6.5.8.8,1.7.7,2.7M25.71,8.7l-10.1-3.2-9.8,14.8,6.5,4.6-1.6,18.3,9.9,5.7,5-40.2" fill="#bb8044"/><path d="M25.71,8.7l-5,40.2-9.9-5.7,1.6-18.3-6.5-4.6L15.71,5.5l10.1,3.2" fill="#fff"/></g></svg>