<?xml version="1.0" encoding="UTF-8"?><svg id="Calque_2" xmlns="http://www.w3.org/2000/svg" viewBox="0 0 42.71 56.08"><g id="Calque_1-2"><path d="M6.11,7.58c-.5.5-.8,1.2-1,2-.1.7,0,1.4.2,2.1l3.9,9.6c.4,1,1.1,1.7,2,2.1l2.9.2,1.2-.3-12.5,15.6c-.7.8-.9,1.8-.8,2.9,0,1,.5,1.9,1.3,2.6l8.1,7.3c.7.6,1.5.9,2.5,1l22.7,1.2c.8,0,1.5-.1,2.2-.5l1.5-1.7c.4-.7.5-1.4.5-2.2l-1.1-11.5c0-1-.5-1.8-1.2-2.5s-1.6-1.1-2.6-1.2l-5.8-.3,4.1-5.3h0c3.1-3.8,4.9-7.6,5.2-11.4v-.2c.2-3.2-.7-6.2-2.8-9h0c-1.9-2.6-4.3-4.5-7.1-5.4h-.4c-3.7-1-7.5-.8-11.2.7l-10.2,3.1c-.7.2-1.3.6-1.8,1.2M4.61,6.28h0c.8-.8,1.7-1.5,2.8-1.8h0l10.2-3.1C21.61-.12,25.71-.42,29.71.58h0l.8.3c3.1,1,5.7,3,7.8,6h0c2.4,3.3,3.5,6.8,3.2,10.5v.2c-.3,4.2-2.2,8.3-5.7,12.5v.2h-.2l-1.6,2.1h2c1.4.2,2.7.8,3.8,1.8,1,1,1.6,2.2,1.8,3.8l1.1,11.5h0c0,1.2-.1,2.3-.7,3.3s-1.3,1.8-2.3,2.5h0c-1,.6-2.1.8-3.2.8l-22.8-1.2h0c-1.4,0-2.6-.6-3.6-1.4l-8.2-7.4h0c-1.2-1.1-1.8-2.4-1.9-4H.01c-.1-1.6.3-3.1,1.3-4.3l9.7-12.1-.6-.2c-1.4-.7-2.4-1.7-3-3.2h0l-3.9-9.7h0c-.5-1-.6-2.1-.3-3.2.2-1.2.7-2.1,1.4-2.9" fill="#85592c"/><path d="M6.11,7.58c.5-.6,1.1-1,1.8-1.2l10.2-3.1c3.7-1.4,7.4-1.7,11.2-.8h.4c2.8,1.1,5.2,2.9,7.1,5.6h0c2.1,2.7,3,5.8,2.8,9v.2c-.3,3.8-2.1,7.6-5.2,11.4h0l-4.1,5.4,5.8.3c1,0,1.8.5,2.6,1.2.7.7,1.1,1.5,1.2,2.5l1.1,11.5c0,.8,0,1.5-.5,2.2l-1.5,1.7c-.7.4-1.4.5-2.2.5l-22.7-1.2c-.9,0-1.8-.4-2.5-1l-8.1-7.3c-.8-.7-1.2-1.6-1.3-2.6,0-1.1.2-2,.8-2.9l12.5-15.6-1.2.3-2.9-.2c-.9-.4-1.6-1.1-2-2.1l-3.9-9.6c-.3-.7-.4-1.4-.2-2.1.1-.8.5-1.4,1-2M35.61,16.88c.1-2.3-.6-4.4-2.1-6.5-1.4-2-3.1-3.3-5.1-4-3-.7-6.1-.5-9.1.7l-10.2,3.1,3.9,9.6,9.1-2.8,2,1.7L6.01,41.28l8.2,7.3,22.7,1.2-1.1-11.5-13.3-.8,8.8-11.4h0c2.6-3.1,4-6.2,4.3-9.2" fill="#bb8044"/><path d="M35.61,16.88c-.3,3.1-1.7,6.1-4.3,9.2h0l-8.8,11.5,13.3.8,1.1,11.5-22.7-1.2-8.2-7.3,18.1-22.6-2-1.7-9.1,2.8-3.9-9.6,10.2-3.1c3-1.2,6.1-1.4,9.1-.7,2,.7,3.7,2,5.1,4,1.5,2,2.2,4.2,2.1,6.5" fill="#fff"/></g></svg>