<?xml version="1.0" encoding="UTF-8"?><svg id="Calque_2" xmlns="http://www.w3.org/2000/svg" viewBox="0 0 40.79 55.2"><g id="Calque_1-2"><path d="M26.51,5.8l8.3,7.5-8.5,14.3,7.1,8c.5,4.3-.8,7.6-4.1,10-4.4,3.2-8.9,4.1-13.6,2.8-4.8-1.4-8-4.2-9.7-8.4l3.2-1.9c2.1,1.9,4.8,2.8,8.1,2.7,2-.2,3.4-1.6,4.3-4,.5-2.2,0-4-1.6-5.7l-2.9,1.2-3.4-5.5,8.7-9.5-12.4,1.2-3.8-9.3,20.3-3.4" fill="#fff"/><path d="M26.51,5.8l-20.3,3.4,3.8,9.3,12.4-1.2-8.7,9.5,3.4,5.5,2.9-1.2c1.6,1.6,2.1,3.5,1.6,5.7-.9,2.4-2.3,3.8-4.3,4-3.3.1-5.9-.8-8.1-2.7l-3.2,1.9c1.7,4.2,4.9,7,9.7,8.4,4.7,1.3,9.2.4,13.6-2.8,3.3-2.4,4.6-5.7,4.1-10l-7.1-8,8.5-14.3-8.3-7.5M27.61,1.9c.6.2,1.1.5,1.6.9l8.3,7.5c.7.6,1.1,1.4,1.2,2.3.1.9,0,1.8-.5,2.7l-7,11.8,5.2,5.9c.5.6.9,1.3,1,2.1.7,5.9-1.2,10.4-5.7,13.7h0c-5.5,4-11.1,5.1-17,3.4h0c-6.1-1.8-10.2-5.4-12.2-10.8-.4-.9-.4-1.9,0-2.8.3-.9.9-1.7,1.8-2.2l3.2-1.8c.8-.4,1.6-.6,2.5-.5.8,0,1.6.4,2.2,1,1.3,1.1,2.9,1.6,4.9,1.6l.6-.5-1.6-.2c-.9-.3-1.6-.8-2.2-1.6l-3.4-5.5c-.5-.8-.7-1.6-.6-2.5,0-.9.4-1.7,1-2.4l1.8-1.8-2.2.2c-.9,0-1.7-.1-2.4-.6-.8-.5-1.3-1.1-1.7-1.9l-3.8-9.3c-.3-.8-.4-1.5-.2-2.4.2-.8.6-1.5,1.2-2,.6-.6,1.3-1,2.1-1.1L26.01,1.6h1.8" fill="#bb8044"/><path d="M27.61,1.9h-1.8L5.51,5.3c-.8.1-1.5.5-2.1,1.1s-1,1.2-1.2,2,0,1.6.2,2.4l3.8,9.3c.3.8.9,1.4,1.7,1.9.7.4,1.5.6,2.4.6l2.2-.2-1.8,1.8c-.6.7-.9,1.5-1,2.4,0,.9,0,1.7.6,2.5l3.4,5.5c.5.8,1.2,1.3,2.2,1.6l1.6.2-.6.5c-2,0-3.6-.5-4.9-1.6-.7-.6-1.4-.9-2.2-1-.9-.1-1.7,0-2.5.5l-3.2,1.8c-.9.5-1.4,1.2-1.8,2.2-.3.9-.3,1.9,0,2.8,2.1,5.3,6.2,8.9,12.2,10.8h0c5.9,1.7,11.5.6,17-3.4h0c4.5-3.3,6.4-7.8,5.7-13.7-.1-.8-.5-1.5-1-2.1l-5.2-5.9,7-11.8c.5-.8.6-1.7.5-2.7-.1-.9-.6-1.7-1.2-2.3l-8.3-7.5c-.5-.4-1-.7-1.6-.9M30.51,1.4l8.3,7.5c1.1.9,1.7,2.1,1.9,3.5.2,1.4,0,2.7-.8,3.9h0l-6.2,10.7,4.2,4.8h0c.8.9,1.2,2,1.4,3.1h0c.8,6.7-1.4,11.9-6.5,15.7h-.3c-5.9,4.4-12,5.6-18.3,3.8h-.2c-6.8-2.1-11.3-6.1-13.6-12-.5-1.4-.6-2.8,0-4.2H.41c.4-1.4,1.3-2.5,2.6-3.2l3.2-1.8h0c1.1-.7,2.3-.9,3.7-.8h-.1.2l-1.4-2.2h0c-.7-1.3-1-2.5-.8-3.8h0c0-.7.2-1.4.6-2l-1.4-.6h0c-1.1-.7-1.9-1.7-2.4-2.8h0L.81,11.7c-.4-1.2-.5-2.3-.3-3.5.2-1.2.8-2.2,1.7-3h0c.8-1,1.9-1.5,3.2-1.7L25.71,0l2.7.2h0c.8.2,1.6.7,2.3,1.3" fill="#85592c"/></g></svg>