<?xml version="1.0" encoding="UTF-8"?><svg id="Calque_2" xmlns="http://www.w3.org/2000/svg" viewBox="0 0 43.47 55.58"><g id="Calque_1-2"><path d="M36.7,10.68c.1-.9,0-1.8-.5-2.6s-1.2-1.4-2-1.7l-11.5-4.2c-.9-.3-1.8-.3-2.8,0-.9.3-1.6.9-2.1,1.7L2.4,29.88c-.4.7-.6,1.5-.6,2.2,0,.8.3,1.5.8,2.1l3.5,5c.4.6.9,1,1.6,1.3l2,.3,4.1-.3v1c-.2.7-.1,1.3.2,2,.2.6.6,1.2,1.2,1.6l9.6,7.5c.7.6,1.6.9,2.6.9s1.8-.4,2.5-1c.7-.7,1.1-1.5,1.2-2.5l1.6-11.2,5.1-.4c.9-.1,1.6-.4,2.3-1,.6-.6,1-1.3,1.2-2.1.2-.9.1-1.7-.2-2.5l-3.2-7.2c-.4-.8-.9-1.4-1.6-1.8-.5-.3-1-.5-1.5-.5l1.8-12.7M38.7,10.98l-1.5,11.1.3.2h0c1.1.6,1.9,1.5,2.4,2.6h0l3.1,7.2h0c.5,1.2.6,2.5.3,3.8h0c-.3,1.3-.9,2.3-1.8,3.2h0c-1,.8-2.1,1.3-3.3,1.5h0l-3.5.3-1.3,9.6c-.2,1.4-.8,2.6-1.8,3.6h0c-1.1,1-2.4,1.5-3.8,1.5-1.5,0-2.9-.4-4-1.3h0l-9.7-7.5c-.9-.7-1.5-1.5-1.8-2.5l-.4-1.5h-1.8c0,.1-.1.1-.1.1-1,0-1.9-.1-2.8-.5h-.2c-1-.5-1.7-1.2-2.3-2l-3.5-4.9h0c-.7-1-1.1-2.1-1.2-3.2,0-1.2.2-2.3.8-3.4L16.3,2.88c.7-1.3,1.8-2.1,3.1-2.5h0c1.3-.5,2.7-.5,4.1,0l11.4,4.2h0c1.3.4,2.4,1.3,3.2,2.5.7,1.2.9,2.5.8,3.9" fill="#85592c"/><path d="M36.7,10.68l-1.8,12.7c.5,0,1,.2,1.5.5.7.4,1.3,1,1.6,1.8l3.2,7.2c.3.8.4,1.6.2,2.5-.2.8-.6,1.5-1.2,2.1-.7.6-1.4.9-2.3,1l-5.1.4-1.6,11.2c-.1,1-.6,1.8-1.2,2.5-.7.6-1.6,1-2.5,1-1,0-1.9-.2-2.6-.9l-9.6-7.5c-.6-.4-1-1-1.2-1.6-.3-.6-.4-1.3-.3-2v-1l-4,.3-2-.3c-.7-.3-1.2-.8-1.6-1.3l-3.5-5c-.5-.6-.7-1.3-.8-2.1,0-.8.2-1.5.6-2.2L17.9,3.98c.5-.8,1.2-1.4,2.1-1.7s1.8-.3,2.8,0l11.5,4.2c.9.3,1.5.9,2,1.7s.6,1.7.5,2.6M19,28.68l-4.8.4,5.6-9-.8,8.5M34.3,27.38l-4.1.3,2.5-17.5-11.5-4.2-15.4,26.1,3.5,4.9,8.8-.8-.6,5.8,9.7,7.5,2-14.3,8.2-.8-3.2-7.2" fill="#bb8044"/><path d="M34.3,27.38l3.2,7.2-8.2.8-2,14.3-9.7-7.5.6-5.8-8.8.8-3.5-4.9L21.3,6.18l11.5,4.2-2.5,17.5,4.1-.3M19,28.68l.8-8.5-5.6,9,4.8-.4" fill="#fff"/></g></svg>