<?xml version="1.0" encoding="UTF-8"?><svg id="Calque_2" xmlns="http://www.w3.org/2000/svg" viewBox="0 0 39.15 56.12"><g id="Calque_1-2"><path d="M34.34,10.02h0c.5,1.1.7,2.2.6,3.3h0c-.2,1.2-.6,2.2-1.3,3.2h0c-.8.9-1.7,1.5-2.7,1.9h-.2l-1.6.7c3,1.1,5.3,2.9,7.1,5.5h0l.8,1.2h0c1.7,3.5,2.4,7.6,2,12.3v.4c-.8,4.3-2.5,7.8-5.2,10.6l-.2.2c-3.9,3.8-8.7,6.1-14.4,6.8h-.8c-7.5-.1-12.6-2.9-15.4-8.2h0l-.5-.9h0C.44,41.12-.36,35.32.14,29.42v-.9c.5-3.8,1.3-7.3,2.6-10.7v-.4c1.6-4.4,4.3-8.3,8.1-11.7h.1c0-.1.4-.5.4-.5C15.04,2.32,19.54.62,24.84.02h0c1.3-.1,2.4.1,3.5.7s2,1.5,2.6,2.6l3.3,6.7M29.24,4.32c-.4-.8-1-1.3-1.7-1.8s-1.5-.6-2.3-.5c-5,.5-9.2,2.2-12.6,4.9h-.2c-3.6,3.3-6.1,7-7.5,11.1h0c-1.3,3.5-2.2,7.1-2.7,11v.2c-.5,5.7.2,11.4,2.2,17.1l.3.7c2.5,4.7,7.1,7.1,13.7,7.2h.5c5.3-.6,9.7-2.7,13.2-6.2h0c2.6-2.6,4.2-5.9,4.8-9.8v-.2c.4-4.3-.2-8.1-1.8-11.2l-.6-1c-2.3-3.3-5.6-5.2-10.1-5.7,1.3-1.7,3.2-2.9,5.6-3.5.7-.3,1.4-.7,1.9-1.3s.8-1.3.9-2.1c0-.8,0-1.5-.4-2.2l-3.3-6.6" fill="#85592c"/><path d="M29.24,4.32l3.3,6.6c.3.7.5,1.5.4,2.2-.1.8-.4,1.5-.9,2.1s-1.2,1-1.9,1.3c-2.4.7-4.3,1.9-5.6,3.5,4.4.5,7.8,2.4,10.1,5.7l.6,1c1.6,3.1,2.2,6.9,1.8,11.2v.2c-.7,3.9-2.3,7.2-4.8,9.8h0c-3.6,3.6-8,5.7-13.2,6.2h-.5c-6.6-.1-11.2-2.5-13.7-7.2l-.3-.7c-2-5.7-2.8-11.4-2.2-17.1v-.2c.5-3.8,1.3-7.4,2.7-10.9h0c1.4-4.2,3.9-7.9,7.5-11h.2c3.4-2.9,7.6-4.5,12.6-5,.8-.1,1.6,0,2.3.5s1.3,1,1.7,1.8M25.64,6.02c-4.2.5-7.7,1.8-10.6,4.1-3.1,2.7-5.2,5.8-6.4,9.4-1.2,3.2-2,6.5-2.5,10-.4,5.2.2,10.3,2.1,15.5,1.9,3.4,5.4,5.1,10.3,5.2,4.3-.5,8-2.1,10.9-5,2-2,3.2-4.5,3.7-7.6.3-3.6-.2-6.8-1.7-9.4h0c-2.6-3.5-6.9-4.8-13-4,1.1-5.8,4.7-9.7,10.6-11.5l-3.3-6.6M15.34,38.02c-.3-1.7-.1-3.2.6-4.5.5-1.3,1.8-1.8,4-1.5.6.1,1.1.3,1.5.5,1.5.9,1.9,2.6,1.2,5-.6,3.4-2.2,4.7-4.8,3.8-1.3-.9-2.1-2.1-2.4-3.5" fill="#bb8044"/><path d="M15.34,38.02c.3,1.4,1.1,2.5,2.4,3.5,2.6.9,4.2-.4,4.8-3.8.7-2.5.3-4.1-1.2-5-.4-.3-.9-.4-1.5-.5-2.1-.3-3.5.2-4,1.5-.7,1.3-.9,2.8-.6,4.5M25.64,6.02l3.3,6.6c-5.9,1.8-9.4,5.6-10.6,11.5,6.1-.8,10.4.6,13,4h0c1.4,2.7,2,5.8,1.7,9.4-.5,3.1-1.7,5.6-3.7,7.6-2.9,2.9-6.5,4.6-10.9,5-4.9,0-8.4-1.8-10.3-5.2-1.8-5.1-2.5-10.3-2.1-15.5.4-3.5,1.2-6.8,2.5-10,1.2-3.5,3.4-6.7,6.4-9.4,2.9-2.3,6.4-3.6,10.6-4.1" fill="#fff"/></g></svg>