<?xml version="1.0" encoding="UTF-8"?><svg id="Calque_2" xmlns="http://www.w3.org/2000/svg" viewBox="0 0 42.62 55.32"><g id="Calque_1-2"><path d="M40.62,13.3c0-.6-.3-1.2-.6-1.8l-4.7-7.4c-.4-.6-1-1.1-1.6-1.4-.7-.4-1.4-.5-2.1-.5L5.42,4.2c-.9,0-1.7.4-2.4,1.1-.7.6-1.1,1.4-1.2,2.3-.1.9,0,1.8.5,2.6l4.6,8c.4.7.9,1.2,1.5,1.5.7.3,1.4.5,2.2.5l8.5-.5-9.7,21c-.4.8-.5,1.7-.3,2.6.2.9.7,1.6,1.4,2.2l8.8,6.9c.7.5,1.4.8,2.2.9s1.6-.2,2.3-.6c.7-.5,1.2-1.1,1.6-1.8l14.9-35.7c.2-.6.3-1.2.3-1.9M42.62,13.1h0c0,1.1,0,2-.4,2.8h0l-14.9,35.7c-.5,1.1-1.3,2.1-2.3,2.8h0c-1.1.7-2.2,1-3.5.9-1.3,0-2.4-.5-3.4-1.3h0l-8.8-6.9h0c-1.1-.9-1.8-2-2.2-3.3h0c-.3-1.4-.1-2.7.5-4l8.3-18-5.1.3h0c-1.1,0-2.2-.2-3.1-.7h0c-1-.6-1.8-1.3-2.3-2.3h0L.82,11.1C.12,9.9-.08,8.6.02,7.2H.02c.2-1.4.8-2.5,1.8-3.5h0c1-1,2.2-1.6,3.6-1.7L31.52,0c1.1,0,2.2.1,3.2.7h-.1c1,.4,1.8,1.1,2.4,2h0l4.7,7.4h0c.5.9.8,1.7.8,2.7" fill="#85592c"/><path d="M40.62,13.3c0,.7,0,1.3-.3,1.9l-14.9,35.7c-.3.8-.9,1.4-1.6,1.8-.7.4-1.5.6-2.3.6s-1.6-.3-2.2-.9l-8.8-6.9c-.7-.6-1.2-1.3-1.4-2.2-.2-.9,0-1.8.3-2.6l9.7-21-8.5.5c-.8,0-1.5-.1-2.2-.5s-1.2-.9-1.5-1.5L2.32,10.2c-.5-.8-.6-1.7-.5-2.6.1-.9.5-1.7,1.2-2.3.7-.7,1.5-1,2.4-1.1l26.2-2c.7,0,1.4,0,2.1.5.6.3,1.2.8,1.6,1.4l4.7,7.4c.3.6.5,1.2.6,1.8M32.02,6.3l-26.2,2,4.6,8,15.2-.9-12.6,27,8.8,6.9,14.9-35.7-4.7-7.3" fill="#bb8044"/><path d="M32.02,6.3l4.7,7.3-14.9,35.7-8.8-6.9,12.6-27-15.2.9-4.6-8,26.2-2" fill="#fff"/></g></svg>