<?xml version="1.0" encoding="UTF-8"?><svg id="Calque_2" xmlns="http://www.w3.org/2000/svg" viewBox="0 0 44.12 57.22"><g id="Calque_1-2"><path d="M24,.3c6.5.6,11.4,2.6,14.8,6h0l.2.2h0c3.7,4.2,5.2,9.1,4.3,14.8v.5c-.6,2.1-1.4,4-2.5,5.6,2.6,3.4,3.7,8,3.2,13.8-.4,10.3-7.8,15.6-22.1,16h0c-6.9.2-12.1-1.1-15.7-3.8C2.2,50.5.1,46,0,39.9h0v-.5h0c.3-4.7,1.8-8.5,4.4-11.6-3-3.7-3.4-8.7-1.3-14.8h0c0-.1.2-.7.2-.7h0c.7-1.5,1.6-2.8,2.4-4C9.7,2.7,15.6,0,23.2,0h.6M23.8,2.3h-.3c-6.9,0-12.2,2.4-15.9,7.4-.8,1.1-1.6,2.4-2.2,3.8l-.2.5c-2,6-1.3,10.7,2.2,14.1-3.1,3-4.8,6.9-5.1,11.6v.5c.1,5.4,1.9,9.4,5.4,11.9,3.3,2.4,8.2,3.6,14.6,3.4h0c12.9-.4,19.6-5.1,20.1-14.2.5-5.9-.7-10.5-3.8-13.5,1.5-1.7,2.5-3.7,3.1-6.1v-.2c.8-5.2-.4-9.6-3.8-13.3l-.2-.2c-3.2-3.1-7.7-4.9-13.7-5.4M20.9,20.6h0v.2h0v-.2h0c0-.1,0,0,0,0" fill="#85592c"/><path d="M20.9,20.6h0c0-.1,0,0,0,0h0v.2h0v-.2M23.8,2.3c6,.5,10.5,2.3,13.7,5.4l.2.2c3.4,3.7,4.7,8.1,3.8,13.3v.2c-.6,2.4-1.6,4.5-3.1,6.1,3.1,3.1,4.3,7.6,3.8,13.5-.5,9.1-7.2,13.8-20.1,14.2h0c-6.4.2-11.2-1-14.6-3.4-3.5-2.5-5.3-6.5-5.4-11.9v-.5c.3-4.8,2-8.6,5.1-11.6-3.5-3.4-4.2-8.1-2.2-14.1l.2-.5c.7-1.4,1.4-2.7,2.2-3.8,3.7-5,9-7.5,15.9-7.5h.3M22.2,17.2c.7,0,1.3.4,1.8,1,.5.7.7,1.4.8,2.2,0,.9-.3,1.6-.8,2.2-.5.6-1.1.9-1.8.8-.7,0-1.3-.4-1.8-1s-.7-1.4-.7-2.2c0-.9.2-1.6.7-2.1.5-.6,1.2-.9,1.8-.9M8.9,15.2c-2.1,6.1-.2,10.4,5.6,12.7-3.3,1.6-5.6,3.8-7,6.5-.8,1.6-1.3,3.5-1.4,5.5,0,2.1.6,4,1.4,5.5,2.2,4.2,7.1,6.2,14.5,6,10.2-.3,15.6-3.8,16.2-10.6.6-6.8-1.9-11.2-7.5-13,3.7-1.2,6-3.5,6.8-7.2.6-3.9-.4-7.2-2.9-10-2.6-2.5-6.4-3.9-11.3-4.4-6.8,0-11.6,3-14.4,9M17.5,36.4c0-1,.4-1.9,1.2-2.5.8-.7,1.8-1,2.9-1,1.2,0,2.2.5,2.9,1.2.8.7,1.2,1.6,1.2,2.6s-.4,1.9-1.2,2.6c-.8.7-1.8,1.1-2.9,1-1.1,0-2.1-.5-2.9-1.2s-1.2-1.6-1.2-2.7" fill="#bb8044"/><path d="M17.5,36.4c0,1.1.4,2,1.2,2.7.8.8,1.8,1.2,2.9,1.2,1.2,0,2.2-.3,2.9-1,.8-.7,1.2-1.5,1.2-2.6s-.4-1.9-1.2-2.6c-.8-.8-1.8-1.2-2.9-1.2s-2.1.3-2.9,1-1.2,1.5-1.2,2.5M22.2,17.2c-.7,0-1.3.3-1.8.9-.5.6-.7,1.3-.7,2.1,0,.9.2,1.6.7,2.2.5.6,1.2,1,1.8,1,.7,0,1.3-.2,1.8-.8s.7-1.3.8-2.2c0-.8-.3-1.6-.8-2.2-.5-.6-1.1-.9-1.8-1M8.9,15.2c2.9-6,7.7-9,14.4-9,4.9.5,8.7,1.9,11.3,4.4,2.5,2.8,3.5,6.1,2.9,10-.8,3.6-3.1,6-6.8,7.2,5.6,1.9,8.1,6.2,7.5,13-.7,6.8-6.1,10.3-16.2,10.6-7.4.2-12.2-1.8-14.5-6-.8-1.6-1.3-3.4-1.4-5.5.1-2,.6-3.9,1.4-5.5,1.4-2.8,3.7-5,7-6.5-5.8-2.3-7.7-6.6-5.6-12.7" fill="#fff"/></g></svg>