<?xml version="1.0" encoding="UTF-8"?><svg id="Calque_2" xmlns="http://www.w3.org/2000/svg" viewBox="0 0 43.25 56.02"><g id="Calque_1-2"><path d="M7.27,6.02l.2-.2c1.6-1.4,3.4-2.6,5.4-3.6h.3C18.37-.38,23.67-.68,29.07,1.22h0c1.9.6,3.7,1.5,5.3,2.7l.5.3h0c4.5,3.6,7.1,8,8,13.2v.2c.4,2.8.5,5.5.2,8.2v.2h0c-1,6-3.7,11.3-7.8,15.9l-9.8,12h0c-.7.9-1.6,1.5-2.7,1.9h0l-3.2.2c-1.1-.2-2.1-.8-2.9-1.5l-5.8-5.8c-1-1-1.6-2.2-1.8-3.5h0c-.2-1.4,0-2.6.8-3.8h0l2.2-3.6-1.2-.3c-5.2-1.5-8.6-5.1-10.1-10.7v-.3C.07,24.12-.13,21.72.07,19.32H.07c.6-5.3,2.8-9.5,6.6-12.8l.2-.2.4-.4M8.47,7.62l-.2.2c-3.6,3-5.7,6.9-6.2,11.8h0c-.2,2.2,0,4.5.5,6.8h0c1.3,4.9,4.3,8,8.8,9.3l3.8.9-3.6,6c-.5.8-.6,1.6-.5,2.5,0,.9.5,1.7,1.2,2.3l5.8,5.8c.5.5,1.2.9,1.9,1h2.2c.7-.4,1.3-.8,1.8-1.3l9.8-12.1c3.9-4.3,6.4-9.2,7.3-14.8v-.2c.3-2.5.3-5.1-.2-7.8h0c-.8-4.9-3.2-8.9-7.3-12.1l-.2-.2c-1.5-1.1-3.2-2-4.9-2.5-5-1.8-9.8-1.5-14.6.9h0c-2,1-3.8,2.2-5.3,3.7h0" fill="#85592c"/><path d="M8.47,7.62h0c1.5-1.5,3.3-2.7,5.3-3.7h0c4.8-2.4,9.6-2.7,14.6-.9,1.8.6,3.4,1.4,4.9,2.5l.2.2c4.1,3.2,6.6,7.2,7.3,12h0c.4,2.8.5,5.4.2,7.9v.2c-1,5.6-3.5,10.5-7.4,14.8l-9.8,12.1c-.5.6-1.1,1-1.8,1.2h-2.2c-.7,0-1.4-.4-1.9-1l-5.8-5.8c-.7-.7-1.1-1.5-1.2-2.3-.1-.9,0-1.7.5-2.5l3.6-6-3.8-.9c-4.5-1.3-7.5-4.4-8.8-9.2h0c-.6-2.3-.8-4.5-.5-6.8h0c.5-4.9,2.6-8.8,6.2-11.8l.2-.2M5.97,19.92c-.2,1.8,0,3.5.5,5.4.9,3.4,3,5.5,6.1,6.5,2.7.9,5.8,1.3,9.2,1.3l-6.8,11.5,5.8,5.8,9.8-12.2c3.5-3.7,5.6-8,6.4-12.9.3-2.2.2-4.4-.1-6.7-.7-3.8-2.6-7-5.9-9.6-1.2-.9-2.6-1.5-4-2-3.9-1.4-7.7-1.2-11.5.7-1.7.9-3.3,1.9-4.6,3.2-2.9,2.3-4.6,5.4-5,9.2M17.57,17.12c.9-1.1,1.9-1.5,3.2-1.5s2.3.7,3.1,1.8c.9,1.1,1.3,2.4,1.3,4s-.4,2.8-1.3,3.8c-.8.9-1.9,1.2-3.1.8-1.2-.3-2.3-.8-3.2-1.6-.9-.7-1.3-1.9-1.3-3.5s.4-2.8,1.3-3.8" fill="#bb8044"/><path d="M5.97,19.92c.4-3.8,2.1-6.9,5-9.2,1.3-1.3,2.9-2.3,4.6-3.2,3.8-1.9,7.6-2.1,11.5-.7,1.4.5,2.8,1.2,4,2,3.3,2.6,5.2,5.8,5.9,9.6.4,2.3.4,4.5.1,6.7-.8,4.9-3,9.2-6.4,12.9l-9.8,12.2-5.8-5.8,6.8-11.5c-3.4,0-6.5-.4-9.2-1.3-3.2-.9-5.2-3-6.1-6.5-.5-1.8-.6-3.6-.5-5.4M17.57,17.12c-.9,1-1.3,2.3-1.3,3.8s.4,2.8,1.3,3.5,1.9,1.3,3.2,1.6c1.2.4,2.3,0,3.1-.8.9-1,1.3-2.2,1.3-3.8s-.4-2.8-1.3-4c-.8-1.1-1.9-1.7-3.1-1.8-1.2,0-2.3.4-3.2,1.5" fill="#fff"/></g></svg>