<?xml version="1.0" encoding="UTF-8"?><svg id="Calque_2" xmlns="http://www.w3.org/2000/svg" viewBox="0 0 256.4 256"><g id="Calque_1-2"><path d="M256.2,54.8v2.2l-69.2-1.2.2-3.1v-1.5l69,3.6M.2,56.9v-2.2l59.2,3.1L.2,56.9M159.9,63.3l.4-3.2,44.9,4.9-.4,3.2-44.9-4.9M170.4,205.1l-127.7,13.5-.3-4.6,128-8.9" fill="#a16e3b"/><path d="M170.4,205.1l-128,8.9-2.5.2-1-15.6,3.1-2.7-3.5-2.2-.3-4.5,51.2-3.6,99.5-6.9.5,6.9.7,9.9-3.2,2.5,3.5,2.4.2,3.2-20.2,1.4M.2,54.8v-25l80.7,4.2-.9,16.8-3.2,2h-.2c0,.1,3.2,2.9,3.2,2.9l-.2,3.3-20.1-1.1L.3,54.8M256.2,29.7v25l-68.9-3.6-2.5-.2.9-15.7,3.4-2.2-3.1-2.6.2-4.5,70.2,3.7" fill="#c98a4b"/><path d="M256.2,29.7l-70.2-3.7-.2,4.5,3.1,2.6-3.4,2.2-.9,15.7,2.5.2v1.5h-110.5l3.2-2,.9-16.8L0,29.7V0h256v29.7M256.2,93.7v56.3l-43,1.8.2,3.8.9,21.2,41.9-1.8v10.5h-66.8l-.5-6.9-99.5,6.9H.2v-10.5l109-4.8-1-22.1v-2.8c-.1,0-108,4.7-108,4.7v-56.3h256" fill="#bb8044"/><path d="M256.2,150v3.5l-42.8,2.1-.2-3.8,43-1.8M.2,153.5v-3.5l107.9-4.7v2.8c.1,0-107.9,5.4-107.9,5.4" fill="#a8733d"/><path d="M256.2,56.9v36.8H.2v-36.8l59.2.9,20.1,1.1.2-3.3-3.2-2.8h.2c0-.1,110.5-.1,110.5-.1l-.2,3.1,69.2,1.2M256.2,185.6v70.4H.2v-70.4h89.2l-51.2,3.6.3,4.5,3.5,2.2-3.1,2.7,1,15.6,2.5-.2.3,4.6,127.7-13.5,20.2-1.4-.2-3.2-3.5-2.4,3.2-2.5-.7-9.9h66.8M204.7,68.3l.4-3.2-44.9-4.9-.4,3.2-2.2,21.8,44.8,4.9,2.3-21.7" fill="#b47b42"/><path d="M256.2,153.5v21.5l-41.9,1.8-.9-21.2,42.8-2.1M.2,175.1v-21.5l108-5.4,1,22.1L.2,175.1" fill="#b17940"/><path d="M159.9,63.3l44.9,4.9-2.3,21.7-44.8-4.9,2.2-21.8" fill="#aa743e"/></g></svg>