<?xml version="1.0" encoding="UTF-8"?><svg id="Calque_2" xmlns="http://www.w3.org/2000/svg" viewBox="0 0 141.11 83.89"><g id="Calque_1-2"><path d="M114.51,34.01l22,12.4c1.1.6,1.8,1.5,2.2,2.6.3.8.4,1.5.3,2.2l-.2,1.2-6,17c-.3.8-.8,1.5-1.5,2.1s-1.4.9-2.3,1.1l-47,9c-.7.1-1.3.1-2,0l-46-9.8-21.9,4.8c-1.3.3-2.5,0-3.6-.6-1.1-.7-1.9-1.6-2.2-2.9l-4-14c-.3-1.2-.2-2.4.2-3.4.5-1.1,1.4-2,2.5-2.5l22-10.1L39.31,5.21c.4-1.2,1.1-2.1,2.2-2.8s2.2-.8,3.4-.6l27,5c.7.1,1.3.4,1.9.8l1.4,1.5,9.2,14.1,16.7-3.4c1-.2,1.9,0,2.8.3.9.4,1.6,1,2.2,1.8l8.3,12.1M133.41,52.61l.6-1.8-23-13-9-13-20,4-11-17-27-5-13,40-24,11,.5,1.9,3.5,12,23-5,47,10,47-9,5.4-15.2" fill="#bb8044"/><path d="M133.41,52.61l-51.5,11.6-46.2-13.5-28.1,9-.5-1.9,24-11L44.11,6.81l27,5,11,17,20-4,9,13,23,13-.6,1.8" fill="#c9dee5"/><path d="M114.51,34.01l-8.3-12.1c-.6-.8-1.3-1.4-2.2-1.8-.9-.4-1.9-.5-2.8-.3l-16.7,3.4-9.2-14.1-1.4-1.5c-.6-.4-1.2-.6-1.9-.8L45.01,1.81c-1.2-.2-2.4,0-3.4.6s-1.8,1.6-2.2,2.8l-12.3,37.9-22,10.1c-1.1.5-2,1.4-2.5,2.5s-.6,2.2-.2,3.4l4,14c.4,1.3,1.1,2.2,2.2,2.9,1.1.7,2.3.9,3.6.6l21.9-4.8,46,9.8c.7.1,1.3.1,2,0l47-9c.9-.2,1.6-.5,2.3-1.1.7-.6,1.2-1.3,1.5-2.1l6-17,.2-1.2c0-.7,0-1.5-.3-2.2-.4-1.1-1.2-2-2.2-2.6l-22-12.4M115.91,32.51l21.6,12.2c1.5.8,2.5,2.1,3.1,3.7.3.8.5,1.7.5,2.5l-.4,2.3h0l-6,17h0c-.4,1.2-1.1,2.2-2.1,3s-2,1.3-3.2,1.5h0l-47,9.1h0c-.9.1-1.9.1-2.8,0l-45.6-9.6-21.4,4.6c-1.8.4-3.5.1-5.1-.8-1.6-1-2.7-2.3-3.2-4.1L.31,59.91c-.5-1.7-.4-3.3.3-4.9.7-1.6,1.8-2.7,3.5-3.4l21.2-9.7L37.41,4.81c.5-1.7,1.6-2.9,3.1-3.8,1.5-.9,3.1-1.2,4.8-.9l27,5c.9.2,1.8.6,2.6,1.1.8.5,1.5,1.2,2,2l8.4,13,15.3-3.1c1.4-.3,2.7-.1,4,.4s2.3,1.3,3.1,2.4h0l8.1,11.7" fill="#85592c"/><path d="M133.41,52.61l-5.4,15.2-47,9-47-10-23,5-3.5-12,28.1-9,46.2,13.5,51.5-11.6" fill="#d2e5ec"/></g></svg>