<?xml version="1.0" encoding="UTF-8"?><svg id="Calque_2" xmlns="http://www.w3.org/2000/svg" viewBox="0 0 134.04 81.6"><g id="Calque_1-2"><path d="M111.83,26.2l4.1,16.3,13.5,4.8c1.8.6,3.1,1.8,3.9,3.4h0c.8,1.7.9,3.4.4,5.2l-4,13h0c-.4,1.1-1,2.1-1.9,3-.9.9-1.9,1.5-3.2,1.8l-21,5h0c-1,.2-2,.2-3,0l-28.3-5.6-31.4,8.5-4.5-.2-27-11c-1.1-.5-2-1.1-2.8-2s-1.2-2-1.5-3.1L.13,39.3c-.2-1.2-.2-2.4.2-3.5.4-1.2,1-2.1,1.9-2.9l14-13.1c1.3-1.2,2.9-1.8,4.8-1.8h12.4l10.9-15.1c.7-1,1.6-1.7,2.7-2.2l1.1-.4,2.3-.3,30.1,2c1.4.1,2.6.6,3.8,1.4l25,19c1.3,1,2.2,2.2,2.5,3.9M108.13,23.9h0l-24.9-19c-.8-.6-1.7-1-2.7-1.1l-30-2c-.9,0-1.7.1-2.5.5s-1.4.9-1.9,1.6l-11.5,15.9h-13.4c-1.3,0-2.4.4-3.4,1.3l-14,13c-.6.6-1.1,1.3-1.3,2.1s-.3,1.7-.2,2.5l5,26c.2.8.5,1.6,1,2.2s1.2,1.1,2,1.5l27,11,3.2.2,31.8-8.7,28.8,5.8c.7.1,1.4.1,2.1,0l21-5c.9-.2,1.6-.6,2.3-1.2.6-.6,1.1-1.3,1.3-2.2l4-13c.4-1.3.3-2.6-.3-3.8-.5-1-1.3-1.8-2.3-2.2l-.5-.2-14.5-5.1-4.3-17.4c-.3-1.1-.9-2.1-1.8-2.8" fill="#85592c"/><path d="M108.13,23.9c.9.7,1.5,1.6,1.8,2.8l4.3,17.4,14.5,5.1.5.2c1,.5,1.8,1.2,2.3,2.2.6,1.2.7,2.4.3,3.8l-4,13c-.3.8-.7,1.6-1.3,2.2-.7.6-1.4,1-2.3,1.2l-21,5c-.7.1-1.4.1-2.1,0l-28.8-5.8-31.8,8.7-3.2-.2-27-11c-.8-.3-1.5-.8-2-1.5s-.9-1.4-1-2.2l-5-26c-.2-.8-.1-1.7.2-2.5s.7-1.5,1.3-2.1l14-13c1-.9,2.1-1.3,3.4-1.3h13.4l11.5-15.9c.5-.7,1.2-1.2,1.9-1.6.8-.4,1.6-.6,2.5-.5l30,2c1,0,1.9.4,2.7,1.1l24.9,18.9h0M127.13,53.9l-17-6-5-20-25-19-30-2-13,18h-16l-14,13,2.8,14.6,2.2,11.4,27,11,33-9,30,6,21-5,4-13" fill="#bb8044"/><path d="M9.93,52.5l-2.8-14.6,14-13h16l13-18,30,2,25,19,5,20,17,6-26.4,4.9-30.2-10.5-31.8,15-28.8-10.8" fill="#c9dee5"/><path d="M9.93,52.5l28.8,10.8,31.8-15,30.2,10.5,26.4-4.9-4,13-21,5-30-6-33,9-27-11-2.2-11.4" fill="#d2e5ec"/></g></svg>