<?xml version="1.0" encoding="UTF-8"?><svg id="Calque_2" xmlns="http://www.w3.org/2000/svg" viewBox="0 0 53.8 54.1"><g id="Calque_1-2"><path d="M28.8,3.9c0-.5-.2-.9-.5-1.3-.4-.4-.8-.5-1.4-.5s-1,.2-1.4.5c-.4.4-.6.8-.6,1.3l.5,3c-4.9.3-9.2,2.3-12.9,5.9-3.6,3.6-5.5,7.9-5.8,12.9l-3-.5c-.5,0-.9.2-1.3.6s-.6.8-.6,1.3.2,1,.6,1.3.8.6,1.3.6l3-.5c.3,5,2.2,9.2,5.8,12.8s7.9,5.6,12.9,5.9l-.5,3c0,.5.2.9.6,1.3.4.4.8.5,1.4.5s1-.2,1.4-.5c.4-.4.5-.8.5-1.3l-.5-3c4.9-.3,9.2-2.3,12.8-5.9h0c3.6-3.7,5.6-7.9,5.9-12.9l3,.5c.5,0,.9-.2,1.3-.6.4-.4.6-.8.6-1.3s-.2-1-.6-1.3c-.4-.4-.8-.6-1.3-.6l-3,.5c-.3-5-2.3-9.3-5.9-12.9-3.6-3.6-7.9-5.6-12.8-5.9l.5-3M14.7,15h0c3.1-3.2,6.9-4.8,11.2-5l.9,5.2.9-5.2c4.3.2,8.1,1.8,11.2,4.9,3.2,3.2,4.8,6.9,5,11.3l-5.2.8,5.2.9c-.2,4.4-1.9,8.1-5,11.2-3.1,3.1-6.9,4.8-11.2,5l-.9-5.3-.9,5.3c-4.3-.2-8.1-1.9-11.2-5-3.1-3.1-4.8-6.9-4.9-11.2l5.2-.9-5.2-.9c.2-4.3,1.8-8.1,4.9-11.2M16.1,16.4c-2.4,2.3-3.8,5-4.2,8.1l3.3.6c.5,0,.9.3,1.2.7s.4.8.4,1.3-.1.9-.4,1.3c-.3.4-.7.6-1.2.7l-3.3.5c.4,3.1,1.8,5.9,4.2,8.2h0c2.4,2.3,5.1,3.8,8.2,4.2l.7-3.5c0-.5.3-.8.7-1.1s.8-.5,1.2-.5c.5,0,.9.2,1.3.5.4.3.6.7.7,1.2l.6,3.4c3.1-.5,5.8-1.9,8.1-4.2,2.4-2.4,3.8-5.1,4.3-8.2l-3.4-.5c-.5-.1-.9-.3-1.2-.7s-.5-.8-.5-1.3.2-.9.5-1.3c.3-.4.7-.6,1.2-.7l3.4-.5c-.5-3.1-2-5.9-4.3-8.2-2.3-2.4-5-3.8-8.1-4.2l-.6,3.4c0,.5-.3.9-.7,1.2l-1.3.4c-.5,0-.9-.1-1.2-.4-.4-.3-.6-.7-.7-1.2l-.7-3.4c-3.1.4-5.8,1.8-8.1,4.2h0M5,23.4c.7-4.6,2.8-8.6,6.2-12s7.4-5.5,11.9-6.2v-.9c-.1,0-.2-.4-.2-.4,0-1,.4-1.9,1.1-2.7.7-.8,1.7-1.2,2.8-1.2s2,.4,2.8,1.2c.7.8,1.1,1.7,1.1,2.7v1.2c4.4.7,8.3,2.8,11.8,6.2,3.4,3.4,5.5,7.4,6.2,12h.9c0-.1.3-.2.3-.2,1,0,1.9.4,2.8,1.2h-.1c.8.7,1.2,1.6,1.2,2.8s-.4,2.1-1.2,2.8h.1c-.8.7-1.7,1.1-2.8,1.1h-.3l-.9-.2c-.7,4.5-2.8,8.5-6.2,12h0c-3.4,3.4-7.4,5.5-11.9,6.2v.9c.1,0,.1.3.1.3,0,1-.4,2-1.1,2.8-.8.7-1.7,1.1-2.8,1.1s-2.1-.4-2.8-1.1c-.8-.8-1.1-1.7-1.1-2.8v-.3l.2-.9c-4.5-.7-8.5-2.8-11.9-6.2s-5.5-7.4-6.2-12l-.9.2h-.3c-1,0-1.9-.4-2.7-1.1-.8-.8-1.1-1.7-1.1-2.8s.4-2,1.1-2.8c.8-.8,1.7-1.2,2.7-1.2h.3l.9.2" fill="rgba(60,57,57,.5)"/><path d="M14.7,15c-3.1,3.1-4.8,6.9-4.9,11.2l5.2.9-5.2.9c.2,4.4,1.8,8.1,4.9,11.2,3.2,3.1,6.9,4.8,11.2,5l.9-5.3.9,5.3c4.3-.2,8.1-1.9,11.2-5,3.2-3.1,4.8-6.9,5-11.2l-5.2-.9,5.2-.8c-.2-4.4-1.9-8.1-5-11.3-3.1-3.1-6.9-4.8-11.2-4.9l-.9,5.2-.9-5.2c-4.3.2-8.1,1.8-11.2,4.9h0M28.8,3.9l-.5,3c4.9.3,9.2,2.3,12.8,5.9,3.6,3.6,5.6,7.9,5.9,12.9l3-.5c.5,0,.9.2,1.3.6.4.4.6.8.6,1.3s-.2,1-.6,1.3c-.4.4-.8.6-1.3.6l-3-.5c-.3,5-2.3,9.2-5.9,12.8h0c-3.6,3.6-7.9,5.6-12.8,5.9l.5,3c0,.5-.2.9-.5,1.3-.4.4-.8.5-1.4.5s-1-.2-1.4-.5c-.4-.4-.6-.8-.6-1.3l.5-3c-4.9-.3-9.2-2.3-12.9-5.9-3.6-3.6-5.5-7.9-5.8-12.8l-3,.5c-.5,0-.9-.2-1.3-.6s-.6-.8-.6-1.3.2-1,.6-1.3.8-.6,1.3-.6l3,.5c.3-5,2.2-9.3,5.8-12.9,3.6-3.6,7.9-5.6,12.9-5.9l-.5-3c0-.5.2-.9.6-1.3.4-.4.8-.5,1.4-.5s1,.2,1.4.5c.4.4.5.8.5,1.3" fill="#fff"/></g></svg>