<?xml version="1.0" encoding="UTF-8"?><svg id="Calque_2" xmlns="http://www.w3.org/2000/svg" viewBox="0 0 46 46"><g id="Calque_1-2"><path d="M5.9,20.1c.5-3.6,2.2-6.7,4.9-9.3,2.6-2.7,5.7-4.3,9.3-4.8V2c0-.6.2-1,.6-1.4.4-.4.8-.6,1.4-.6h1.7c.6,0,1.1.2,1.4.6.4.4.6.8.6,1.4v4c3.5.6,6.6,2.2,9.3,4.8h0c2.7,2.6,4.3,5.7,4.9,9.3h4c.6,0,1.1.2,1.4.6.4.4.6.8.6,1.4v1.7c0,.6-.2,1-.6,1.5-.4.4-.9.5-1.4.5h-4c-.6,3.5-2.2,6.7-4.8,9.4-2.7,2.6-5.8,4.2-9.3,4.8v4c0,.6-.2,1-.6,1.5-.4.4-.9.5-1.4.5h-1.7c-.6,0-1-.2-1.4-.5-.4-.4-.6-.9-.6-1.5v-4c-3.6-.6-6.7-2.2-9.3-4.8h0c-2.7-2.7-4.3-5.8-4.9-9.4H2c-.6,0-1-.2-1.4-.5-.4-.4-.6-.9-.6-1.5v-1.7c0-.6.2-1,.6-1.4.4-.4.8-.6,1.4-.6h4M1.9,22.1v1.7h5.8c.2,3.8,1.6,7.1,4.4,9.9,2.7,2.8,6,4.2,9.9,4.5v5.8h1.7v-5.8c3.8-.2,7.1-1.7,9.9-4.5s4.2-6.1,4.4-9.9h5.8v-1.7h-5.8c-.2-3.9-1.7-7.2-4.4-9.9-2.8-2.8-6.1-4.2-9.9-4.5V1.9h-1.7v5.8c-3.9.2-7.2,1.7-9.9,4.5-2.8,2.7-4.3,6-4.4,9.9H1.9M16.8,16.8c-1,1-1.7,2-2.1,3.2h5.3v-5.4c-1.2.4-2.3,1.1-3.2,2.1h0M29,16.8c-1-1-2.1-1.7-3.3-2.1v5.4h5.3c-.4-1.2-1.1-2.3-2.1-3.2M30.5,15.4c1.9,1.9,2.9,4.1,3.1,6.7h-9.8v-9.8c2.6.2,4.8,1.2,6.7,3.1M22,12.2v9.8h-9.8c.2-2.6,1.2-4.8,3.1-6.7,1.9-1.9,4.1-2.9,6.7-3.1M29,29c.9-1,1.6-2,2-3.2h-5.3v5.3c1.2-.4,2.3-1.1,3.2-2h0M15.3,30.4c-1.9-1.9-2.9-4.1-3.1-6.7h9.8v9.8c-2.6-.2-4.8-1.2-6.7-3M20,25.7h-5.3c.4,1.2,1.1,2.3,2.1,3.3h0c1,.9,2.1,1.6,3.2,2v-5.4M23.8,33.5v-9.8h9.8c-.2,2.6-1.2,4.8-3.1,6.7-1.9,1.8-4.1,2.8-6.7,3" fill="rgba(60,57,57,.5)"/><path d="M23.8,33.5c2.6-.2,4.8-1.2,6.7-3,1.8-1.9,2.9-4.1,3.1-6.7h-9.8v9.8M1.9,22.1h5.8c.2-3.9,1.6-7.2,4.4-9.9,2.7-2.8,6-4.3,9.9-4.5V1.9h1.7v5.8c3.8.2,7.1,1.7,9.9,4.5,2.8,2.7,4.2,6,4.4,9.9h5.8v1.7h-5.8c-.2,3.8-1.7,7.1-4.4,9.9s-6.1,4.2-9.9,4.5v5.8h-1.7v-5.8c-3.9-.2-7.2-1.7-9.9-4.5-2.8-2.8-4.3-6.1-4.4-9.9H1.9v-1.7M22,12.2c-2.6.2-4.8,1.2-6.7,3.1-1.9,1.9-2.9,4.1-3.1,6.7h9.8v-9.8M30.5,15.4c-1.9-1.9-4.1-2.9-6.7-3.1v9.8h9.8c-.2-2.6-1.2-4.8-3.1-6.7M15.3,30.4c1.9,1.8,4.1,2.8,6.7,3v-9.8h-9.8c.2,2.6,1.2,4.8,3.1,6.7" fill="#fff"/></g></svg>