<?xml version="1.0" encoding="UTF-8"?><svg id="Calque_2" xmlns="http://www.w3.org/2000/svg" viewBox="0 0 22.9 39"><g id="Calque_1-2"><path d="M11.4,0c3.2,0,5.9,1.1,8.2,3.4,2.2,2.2,3.3,4.9,3.3,8.1s-1.1,5.8-3.2,8c2.1,2.2,3.2,4.9,3.2,8s-1.1,5.9-3.3,8.1h0c-2.3,2.3-5,3.4-8.1,3.4s-5.9-1.1-8.1-3.3c-2.3-2.3-3.4-5-3.4-8.2s1.1-5.8,3.2-8C1,17.3,0,14.6,0,11.5S1.1,5.6,3.4,3.4C5.6,1.1,8.3,0,11.5,0M18.1,4.8c-1.9-1.9-4.1-2.8-6.8-2.8s-4.9.9-6.7,2.8c-1.9,1.8-2.8,4.1-2.8,6.7s.9,4.9,2.8,6.8c.5.5,1,.9,1.5,1.2l-1.5,1.3c-1.9,1.8-2.8,4.1-2.8,6.7s.9,4.9,2.8,6.8c1.8,1.8,4.1,2.8,6.7,2.8s4.9-.9,6.8-2.8c1.8-1.9,2.8-4.1,2.8-6.8s-.9-4.9-2.8-6.7l-1.5-1.3,1.5-1.2c1.8-1.9,2.8-4.1,2.8-6.8s-.9-4.9-2.8-6.7" fill="#85592c"/><path d="M18.1,4.8c1.8,1.8,2.8,4.1,2.8,6.7s-.9,4.9-2.8,6.8l-1.5,1.2,1.5,1.3c1.8,1.8,2.8,4.1,2.8,6.7s-.9,4.9-2.8,6.8c-1.9,1.8-4.1,2.8-6.8,2.8s-4.9-.9-6.7-2.8c-1.9-1.9-2.8-4.1-2.8-6.8s.9-4.9,2.8-6.7l1.5-1.3c-.6-.4-1.1-.8-1.5-1.2-1.9-1.9-2.8-4.1-2.8-6.8s.9-4.9,2.8-6.7c1.8-1.9,4.1-2.8,6.7-2.8s4.9.9,6.8,2.8M15.2,7.5c-1.1-1.1-2.4-1.6-3.9-1.6s-2.8.5-3.9,1.6c-1.1,1.1-1.6,2.4-1.6,3.9s.5,2.8,1.6,3.9,2.4,1.6,3.9,1.6,2.8-.5,3.9-1.6c1.1-1.1,1.6-2.4,1.6-3.9s-.5-2.8-1.6-3.9M7.4,23.5c-1.1,1.1-1.6,2.4-1.6,3.9s.5,2.8,1.6,3.9c1.1,1.1,2.4,1.6,3.9,1.6s2.8-.5,3.9-1.6c1.1-1.1,1.6-2.4,1.6-3.9s-.5-2.8-1.6-3.9c-1.1-1.1-2.4-1.6-3.9-1.6s-2.8.5-3.9,1.6" fill="#bb8044"/><path d="M7.4,23.5c1.1-1.1,2.4-1.6,3.9-1.6s2.8.5,3.9,1.6c1.1,1.1,1.6,2.4,1.6,3.9s-.5,2.8-1.6,3.9c-1.1,1.1-2.4,1.6-3.9,1.6s-2.8-.5-3.9-1.6c-1.1-1.1-1.6-2.4-1.6-3.9s.5-2.8,1.6-3.9M15.2,7.5c1.1,1.1,1.6,2.4,1.6,3.9s-.5,2.8-1.6,3.9c-1.1,1.1-2.4,1.6-3.9,1.6s-2.8-.5-3.9-1.6-1.6-2.4-1.6-3.9.5-2.8,1.6-3.9c1.1-1.1,2.4-1.6,3.9-1.6s2.8.5,3.9,1.6" fill="#fff"/></g></svg>