<?xml version="1.0" encoding="UTF-8"?><svg id="Calque_2" xmlns="http://www.w3.org/2000/svg" viewBox="0 0 113.14 108.62"><g id="Calque_1-2"><path d="M85.67,44.72c-1.3,1.3-1.1,2.9.5,4.6,2.2,2.6,4.1,5.5,5.7,8.6l1.4,3.2c2.8,8.8,2.2,17.2-2,25.2-5.1,9.9-13.7,15-25.8,15.3l-23.2-.9c-14.1-1.8-23.6-7.1-28.4-15.9-2-3.3-3.5-6.9-4.6-10.6-.9-3.2-1.5-6.5-1.8-10-.2-2.1-.2-4.3-.1-6.5l.5-5.5c.4-2.6.9-4.8,1.5-6.8,1.7-5.6,4.1-8.4,7.2-8.4,3.5,0,5.5,1.5,6.1,4.6,1.4,8,10,11.3,26,10,3.7-.7,6.1-2,7.1-3.9.8-1.5.8-3.3,0-5.4-.4-1.1-1-2.2-1.8-3.5-2.3-3.1-3.4-7.1-3.3-12,.4-6.1,2.1-10.9,5.1-14.2,2.3-2.5,5.2-4.3,9-5.3l7.6-.5c8.6.5,14.9,3.4,19,8.5,3.3,4.5,4.5,9.4,3.6,14.9l-.2.9c-5.2,3.9-8.2,8.4-9.1,13.4h0M84.67,21.82c-1.3-1.4-3-2.1-4.9-2.1s-3.6.7-4.9,2.1c-1.4,1.4-2.1,3-2.1,4.9s.7,3.6,2.1,4.9c1.3,1.4,3,2.1,4.9,2.1s3.5-.7,4.9-2.1c1.4-1.3,2-3,2-4.9s-.7-3.5-2-4.9M83.47,69.72c0-2.6-.7-5.3-2.2-8.3-.6-1.3-1.4-2.5-2.3-3.5-2-2-4.6-3.4-8-4.2-4.9-1.2-10,0-15.3,3.5l-1.2.8-1.8,1.4-2.3,1.6c-2.1,1.4-4.4,2.6-6.8,3.5-2.8,1.1-5.8,1.9-8.9,2.4-3.4.7-4.3,2.5-2.7,5.4l1.1,1.4c-2,1.1-2.4,2.8-1.1,5,8.7,11.3,22.5,13,41.5,5,6.7-3.9,10-8.5,9.9-13.8" fill="#fc0"/><path d="M94.77,31.32l.2-.9c.9-5.5-.3-10.4-3.6-14.9-4.1-5.1-10.4-8-19-8.5l-7.6.5c-3.7,1-6.7,2.8-9,5.3-3,3.4-4.7,8.1-5.1,14.2,0,4.9,1,8.9,3.3,12,.8,1.3,1.4,2.4,1.8,3.5.8,2.2.8,4,0,5.4-1,1.9-3.4,3.2-7.1,3.9-16,1.4-24.7-2-26-10-.6-3.2-2.6-4.7-6.1-4.6-3.2,0-5.6,2.8-7.2,8.4-.6,1.9-1.1,4.2-1.5,6.8l-.5,5.5c0,2.2,0,4.4.1,6.5.3,3.5.9,6.8,1.8,10,1.1,3.7,2.6,7.3,4.6,10.6,4.8,8.8,14.3,14.1,28.4,15.9l23.2.9c12.1-.3,20.7-5.4,25.8-15.3,4.1-8,4.8-16.4,2-25.2l-1.4-3.2c-1.6-3.1-3.5-6-5.7-8.6-1.6-1.8-1.8-3.3-.5-4.6,9.8.6,16.1-1.1,18.8-5,2.6-3.8,2.3-6.2-.8-7.1h-2.9c0-.1-.5,0-.5,0-2.1,0-4-.3-5.6-1.2M55.77,6.02c2.2-1.5,4.8-2.6,7.6-3.3h.2c2.7-.7,5.7-.9,9-.8,10,.6,17.4,3.9,22.2,9.9l.5.5h0c3.4,4.7,5,9.6,4.9,15l5,.3h0c3.9,1.3,5.9,3.5,5.9,6.8.5,2.1-.4,4.8-2.5,7.9v.2c-2.7,4.2-8,6.6-15.9,7.1,1.8,2.5,3.3,5.3,4.6,8.2l.6,1.4v.4c3.4,10.2,2.6,19.9-2.2,29-6,11.6-15.9,17.6-29.9,18l-24.3-.9h.1c-6.8-.9-12.6-2.4-17.5-4.7-6.7-3.2-11.6-7.8-14.7-13.7v.2l-.3-.6c-4-6.8-6.3-14.4-6.8-22.5-.2-2.1-.2-4.3-.1-6.5,0-2,.2-4,.5-6v-.2c1.3-8.2,3.4-13.8,6.4-16.8,2-2,4.4-2.9,7.1-2.6h0c3.3,0,5.9.7,7.8,2.4,1.7,1.4,2.8,3.6,3.3,6.4h0c1.4,5,8.2,6.9,20.5,5.9,1.7-.4,2.8-.8,3.3-1.3,0-.9-.5-2.2-1.6-3.9v.2c-2.8-3.9-4.2-8.9-4.1-15v-.2c.4-6.1,1.9-11.1,4.4-14.9,1.5-2.3,3.4-4.3,5.7-5.8" fill="#ccc"/><path d="M55.77,6.02c-2.3,1.5-4.2,3.5-5.7,5.8-2.5,3.9-4,8.9-4.4,14.9v.2c0,6.1,1.4,11.1,4.2,15v-.2c.9,1.7,1.5,3,1.5,3.9-.6.5-1.7.9-3.3,1.3-12.2,1-19-.9-20.5-5.8h0c-.5-2.9-1.6-5-3.3-6.5-1.9-1.6-4.5-2.4-7.8-2.4h0c-2.8-.3-5.1.6-7.1,2.6-3,3-5.1,8.6-6.4,16.8v.2c-.3,2-.4,4-.5,6,0,2.2,0,4.4.1,6.5.5,8.2,2.8,15.7,6.8,22.5l.3.6v-.2c3,5.9,7.9,10.5,14.7,13.7,4.9,2.3,10.7,3.8,17.5,4.7h-.1l24.3.9c14-.5,23.9-6.5,29.9-18,4.8-9.2,5.5-18.9,2.2-29v-.4l-.7-1.4c-1.3-2.9-2.8-5.7-4.6-8.2,7.9-.5,13.2-2.9,15.8-7.1v-.2c2.3-3.2,3.1-5.9,2.6-7.9,0-3.3-2-5.5-5.9-6.8h0l-5-.4c.1-5.4-1.5-10.3-4.9-14.9h0c0-.1-.5-.6-.5-.6-4.8-5.9-12.2-9.2-22.2-9.9-3.3-.2-6.3,0-9,.7h-.2c-2.9.8-5.5,1.9-7.6,3.3M63.07.82c2.9-.7,6.1-.9,9.7-.8,11,.7,19,4.4,24.1,11.2h0v.2l.3.5c3,4.2,4.6,8.6,4.9,13.4l3.6.5h0c4.8,1.5,7.3,4.3,7.3,8.4.6,2.5-.4,5.6-2.9,9.3h-.1c-2.4,4.2-7.1,6.8-14,7.8,1.3,2.1,2.4,4.2,3.3,6.5l.2.6h0c0,.1.1.5.1.5h0c3.4,10.7,2.7,20.9-2.4,30.6-6.3,12.2-16.9,18.6-31.6,19.1h0l-24.7-.9h-.2c-6.5-.9-12.1-2.4-16.8-4.5-6.6-2.9-11.6-7-15-12.4l-1.4-2.4h0v-.2c-4.3-7.2-6.7-15.2-7.3-23.9-.2-2.1-.2-4.3-.1-6.5,0-2,.2-4,.5-6.1h0v-.4c1.5-9.9,4.3-16.4,8.4-19.4,2.1-1.5,4.5-2.1,7.3-1.8,3.1,0,5.7.6,7.7,1.8,2.8,1.7,4.5,4.5,5.2,8.5,1.5,3.7,7.6,5.2,18.3,4.3l1.2-.3-1-1.6c-3-4.2-4.5-9.5-4.5-15.9h0v-.4h0c.4-6,1.7-10.9,4-14.9,2-3.5,4.7-6.2,8.2-8.2,2.1-1.2,4.5-2.2,7.1-2.9h.2" fill="#666"/><path d="M84.67,21.82c1.4,1.4,2,3,2,4.9s-.7,3.6-2,4.9c-1.3,1.4-3,2.1-4.9,2.1s-3.6-.7-4.9-2.1c-1.4-1.3-2.1-3-2.1-4.9s.7-3.5,2.1-4.9c1.3-1.4,3-2.1,4.9-2.1s3.5.7,4.9,2.1" fill="#3c3939"/><path d="M85.67,44.72h0c.9-5,3.9-9.5,9.1-13.4,1.7.9,3.6,1.3,5.6,1.2h3.4c3.1,1,3.3,3.3.8,7.1-2.8,3.9-9.1,5.6-18.8,5" fill="#e86a17"/><path d="M33.27,73.52l-1.1-1.4c-1.6-2.8-.7-4.6,2.7-5.4,3.1-.5,6.1-1.2,8.9-2.4,2.4-.9,4.6-2.1,6.8-3.5l2.3-1.6,1.8-1.4,1.2-.8c5.3-3.5,10.4-4.7,15.3-3.5,3.3.8,6,2.2,8,4.2.9,1,1.7,2.1,2.3,3.5,1.5,3,2.2,5.8,2.2,8.3,0,5.1-3.4,9.2-9.9,12.2-18.2,5.5-31.7,2.8-40.4-8.3" fill="#fad339"/><path d="M33.27,73.52c8.7,11.1,22.2,13.8,40.4,8.3,6.5-3,9.8-7.1,9.9-12.2,0,5.3-3.2,9.9-9.9,13.8-19,8-32.8,6.3-41.5-5-1.3-2.2-.9-3.8,1.1-5" fill="#eebf04"/></g></svg>