<?xml version="1.0" encoding="UTF-8"?><svg id="Calque_2" xmlns="http://www.w3.org/2000/svg" viewBox="0 0 112.91 108.67"><g id="Calque_1-2"><path d="M62.64.87h.2c2.9-.8,6.1-1,9.7-.8,6,.4,11.1,1.6,15.3,3.9,3.5,1.8,6.4,4.3,8.8,7.3h0v.2c3.2,4.3,4.9,8.9,5.2,13.9,1.2,0,2.4.2,3.6.5h0c4.8,1.5,7.3,4.3,7.3,8.4.6,2.5-.4,5.6-2.9,9.3h-.1c-2.4,4.2-7.1,6.8-14,7.8l.4.5v.2c.1,0,1.5,2.5,1.5,2.5h0l1.7,3.8h0c0,.1.2.6.2.6,3.4,10.7,2.7,20.9-2.3,30.6-6.3,12.2-16.9,18.6-31.6,19.1h0l-24.7-.9h-.2c-16.6-2.2-27.6-8.6-33.2-19.2h0c0-.1-.1-.2-.1-.2C1.14,77.77-1.16,65.67.54,51.87h0v-.4c2.3-15.1,7.5-22.1,15.7-21.1,7.4,0,11.7,3.4,12.9,10.4,1.5,3.7,7.6,5.2,18.4,4.3l1.1-.3-.7-1.4h0v-.1c-3.1-4.2-4.6-9.5-4.6-16h0v-.4h0c.7-11,4.6-18.6,11.7-22.9,2.2-1.3,4.7-2.4,7.5-3.1M49.24,46.57l-1.6.4c-12.2,1-19-.9-20.4-5.8h0c-1-6-4.7-8.9-11.1-8.8h0c-7-.6-11.5,5.8-13.5,19.4v.2c-1.7,13.5.5,25.4,6.8,35.7v-.2c5.3,10.2,16,16.4,32.1,18.4h0l24.3.9c14-.5,23.9-6.5,29.9-18,4.8-9.2,5.5-18.9,2.2-29v-.4l-1.8-3.6h0l-1.3-2.5h0l-2.2-3.5c7.9-.5,13.2-2.9,15.8-7.1v-.2c2.3-3.2,3.1-5.9,2.6-7.9,0-3.3-2-5.5-5.9-6.8h0l-5-.4c.1-5.4-1.5-10.3-4.9-14.9h0c-3.1-4.1-7.2-6.9-12.4-8.6-3.1-1-6.5-1.6-10.2-1.9-3.3-.2-6.3,0-9,.7h-.2l-3.4,1.2c-8.8,3.5-13.6,11.2-14.3,22.9v.2c0,6,1.3,11,4.2,14.9h0c.8,1.3,1.2,2.4,1.5,3.4h0v.2h0v.1h-.2c0,.1-.4.4-.4.4l-1,.5h-.2l-.2-.4v-.5h0c0,.3,0,.6.2.9" fill="#666"/><path d="M49.24,46.57h.2l1-.5.4-.2h.2v-.1h0v-.2h0c-.2-1-.7-2.1-1.5-3.4h0c-2.9-4-4.3-9-4.2-15v-.2c.7-11.8,5.5-19.4,14.3-22.9l3.4-1.1h.2c2.7-.7,5.7-1,9-.8,3.8.2,7.2.9,10.2,1.9,5.2,1.7,9.3,4.6,12.4,8.5h0c3.4,4.7,5,9.6,4.9,15l5,.3h0c3.9,1.3,5.9,3.5,5.9,6.8.5,2.1-.4,4.8-2.5,7.9v.2c-2.7,4.2-8,6.6-15.9,7.1l2.2,3.4h0l1.3,2.4h0l1.7,3.6v.4c3.4,10.2,2.6,19.9-2.2,29-6,11.6-15.9,17.6-29.9,18l-24.3-.9h0c-16.1-2-26.8-8.2-32.2-18.4v.2C2.64,77.27.44,65.37,2.14,51.87v-.2c2.1-13.6,6.6-20,13.5-19.4h0c6.4,0,10.1,2.8,11.1,8.8h0c1.4,5,8.2,6.9,20.4,5.9l1.6-.4M94.44,31.37l.2-.9c.9-5.5-.3-10.4-3.6-14.9-4.1-5.1-10.4-8-19-8.5l-7.7.5c-8.7,2.4-13.4,8.9-14.1,19.6,0,4.9,1,8.9,3.3,12,1.4,2.1,2.1,4,2.3,5.6v.8c0,1.5-.5,2.8-1.6,3.8l-1.4,1.1c-1.2.7-2.8,1.2-4.7,1.5-16,1.4-24.7-2-26-10-.6-3.2-2.6-4.7-6.1-4.6-4.3,0-7.2,5.1-8.7,15.1-1.6,12.3.5,23.1,6.1,32.5,4.8,8.8,14.3,14.1,28.4,15.9l23.2.9c12.1-.3,20.7-5.4,25.8-15.3,4.1-8,4.8-16.4,1.9-25.2l-1.5-3.4-1.2-2.1c-1.2-2-2.5-3.9-3.9-5.7l-.5-.6-.8-1.1c-.8-1.3-.7-2.5.3-3.5,9.8.6,16.1-1.1,18.8-5,2.6-3.8,2.3-6.2-.8-7.1h-2.9c0-.1-.5,0-.5,0-2.1,0-3.9-.3-5.7-1.2" fill="#ccc"/><path d="M94.44,31.37c-5.2,3.9-8.2,8.4-9.1,13.4h0c-1,1-1.1,2.2-.3,3.5l.8,1.1.5.6c-9.1.8-19.2-.6-30.3-4.4v-.8c-.3-1.6-1-3.5-2.4-5.6-2.3-3.1-3.4-7.1-3.3-12,.7-10.7,5.4-17.2,14.1-19.6l7.7-.5c8.6.5,14.9,3.4,19,8.5,3.3,4.5,4.5,9.4,3.6,14.9l-.2.9M84.44,21.87c-1.3-1.4-2.9-2.1-4.8-2.1s-3.6.7-4.9,2.1c-1.4,1.4-2.1,3-2.1,4.9s.7,3.6,2.1,4.9c1.3,1.4,3,2.1,4.9,2.1s3.5-.7,4.8-2.1c1.4-1.3,2-3,2-4.9s-.7-3.5-2-4.9" fill="#3da043"/><path d="M84.44,21.87c1.4,1.4,2,3,2,4.9s-.7,3.6-2,4.9c-1.3,1.4-2.9,2.1-4.8,2.1s-3.6-.7-4.9-2.1c-1.4-1.3-2.1-3-2.1-4.9s.7-3.5,2.1-4.9c1.3-1.4,3-2.1,4.9-2.1s3.5.7,4.8,2.1" fill="#3c3939"/><path d="M85.44,44.77h0c.9-5,3.9-9.5,9.1-13.4,1.7.9,3.6,1.3,5.7,1.2h3.4c3.1,1,3.3,3.3.8,7.1-2.8,3.9-9.1,5.6-18.8,5" fill="#fc0"/><path d="M56.14,45.57c11.1,3.7,21.2,5.2,30.3,4.4,1.5,1.8,2.8,3.7,3.9,5.7l1.2,2.1-14.6-1.4-13.4-2.9c-3.4-.9-6.9-2-10.4-3.2l1.4-1.1c1.1-1,1.6-2.2,1.6-3.8" fill="#f3f1b9"/><path d="M91.54,57.87l1.5,3.4c2.8,8.8,2.2,17.3-1.9,25.2-5.1,9.9-13.7,15-25.8,15.3l-23.2-.9c-14.1-1.8-23.6-7.1-28.4-15.9-5.6-9.4-7.7-20.2-6.1-32.5,1.5-10,4.4-15.1,8.7-15.1,3.5,0,5.5,1.5,6.1,4.6,1.4,8,10,11.3,26,10,1.9-.4,3.5-.9,4.7-1.5,3.5,1.2,7,2.3,10.4,3.2l13.4,2.9,14.6,1.4M67.14,61.37c-3.7-3.7-8.2-5.5-13.5-5.5s-9.7,1.8-13.4,5.5c-3.7,3.7-5.6,8.2-5.6,13.5s1.9,9.7,5.6,13.4c3.7,3.7,8.2,5.6,13.4,5.6s9.7-1.9,13.5-5.6c3.7-3.7,5.5-8.2,5.5-13.4s-1.8-9.8-5.5-13.5" fill="#bb8044"/><path d="M67.14,61.37c3.7,3.7,5.5,8.2,5.5,13.5s-1.8,9.7-5.5,13.4c-3.7,3.7-8.2,5.6-13.5,5.6s-9.7-1.9-13.4-5.6c-3.7-3.7-5.6-8.2-5.6-13.4s1.9-9.8,5.6-13.5c3.7-3.7,8.2-5.5,13.4-5.5s9.7,1.8,13.5,5.5M59.14,69.37c1.5,1.5,2.2,3.3,2.2,5.5s-.7,3.9-2.2,5.4h0c-1.5,1.6-3.3,2.3-5.4,2.3s-3.9-.8-5.4-2.2c-1.5-1.5-2.2-3.3-2.2-5.4s.8-4,2.2-5.5c1.5-1.5,3.3-2.3,5.4-2.3s4,.8,5.5,2.3M55.14,73.37c-.4-.4-.9-.6-1.5-.6s-1.1.2-1.4.6c-.4.4-.6.9-.6,1.5s.2,1,.6,1.4h0c.4.4.9.6,1.4.6s1-.2,1.4-.5h0c.4-.5.6-1,.6-1.5s-.2-1-.5-1.4h0M63.14,65.37c-2.6-2.6-5.8-3.9-9.5-3.9s-6.8,1.3-9.4,3.9c-2.6,2.6-3.9,5.8-3.9,9.5s1.3,6.8,3.9,9.4c2.6,2.6,5.8,3.9,9.4,3.9s6.9-1.3,9.5-3.9h0c2.6-2.6,3.9-5.8,3.9-9.4s-1.3-6.9-3.9-9.5" fill="#e86a17"/><path d="M63.14,65.37c2.6,2.6,3.9,5.8,3.9,9.5s-1.3,6.8-3.9,9.4h0c-2.6,2.6-5.8,4-9.5,4s-6.8-1.3-9.4-3.9c-2.6-2.6-3.9-5.8-3.9-9.4s1.3-6.9,3.9-9.5c2.6-2.6,5.8-3.9,9.4-3.9s6.9,1.3,9.5,3.9M59.14,69.37c-1.5-1.5-3.3-2.3-5.5-2.3s-3.9.8-5.4,2.3-2.2,3.3-2.2,5.5.8,3.9,2.2,5.4c1.5,1.5,3.3,2.2,5.4,2.2s3.9-.7,5.4-2.2h0c1.5-1.6,2.2-3.4,2.2-5.5s-.8-4-2.2-5.5M55.14,73.37h0c.3.5.5.9.5,1.5s-.2,1-.6,1.4h0v.1c-.4.4-.9.5-1.4.5s-1-.2-1.4-.5h0c-.4-.5-.6-.9-.6-1.5s.2-1,.6-1.5c.4-.4.9-.6,1.4-.6s1.1.2,1.5.6" fill="#fff"/></g></svg>