<?xml version="1.0" encoding="UTF-8"?><svg id="Calque_2" xmlns="http://www.w3.org/2000/svg" viewBox="0 0 113.01 108.56"><g id="Calque_1-2"><path d="M83.24,69.86c0-2.6-.7-5.3-2.1-8.3-.6-1.3-1.4-2.5-2.4-3.5l-1.8-1.5,14.6,1.4h0c0,.1,1.4,3.4,1.4,3.4,2.8,8.8,2.2,17.2-1.9,25.2-5.1,9.9-13.7,15-25.8,15.3l-23.2-.9c-14.1-1.8-23.6-7.1-28.4-15.9-4.8-8-7-17-6.5-27,0-1.8.2-3.6.4-5.5,1.5-10,4.4-15.1,8.7-15.1,3.5,0,5.5,1.5,6.1,4.6,1.4,8,10,11.3,26,10,1.9-.4,3.5-.9,4.7-1.5,3.5,1.2,7,2.3,10.4,3.2-3,.6-6.1,2.1-9.2,4.4l-1.8,1.4-2.3,1.6c-4.7,3-9.9,5-15.6,5.9-3.4.7-4.3,2.5-2.7,5.4l1.1,1.4c-2,1.1-2.4,2.8-1.1,5,8.7,11.3,22.5,13,41.5,5,6.7-3.9,9.9-8.5,9.8-13.8" fill="#bb8044"/><path d="M53.14,50.56c-1.2.7-2.8,1.2-4.7,1.5-16,1.4-24.7-2-26-10-.6-3.2-2.6-4.7-6.1-4.6-4.3,0-7.2,5.1-8.7,15.1-.2,1.8-.4,3.6-.4,5.5-.4,10.1,1.7,19.1,6.5,27,4.8,8.8,14.3,14.1,28.4,15.9l23.2.9c12.1-.3,20.7-5.4,25.8-15.3,4.1-8,4.8-16.4,1.9-25.2l-1.4-3.2h0c0-.1-1.2-2.3-1.2-2.3-1.2-2-2.5-3.9-3.9-5.7l-.5-.6-.8-1.1c-.8-1.3-.7-2.5.3-3.5,9.8.6,16.1-1.1,18.8-5,2.6-3.8,2.3-6.2-.8-7.1h-2.9c0-.1-.5,0-.5,0-2.1,0-3.9-.3-5.7-1.2l.2-.9c.9-5.5-.3-10.4-3.6-14.9-4.1-5.1-10.4-8-19-8.5l-7.7.5c-8.7,2.4-13.4,8.9-14.1,19.6,0,4.9,1,8.9,3.3,12,1.4,2.1,2.1,4,2.3,5.6v.8c0,1.5-.5,2.8-1.6,3.8l-1.4,1.1M49.44,46.66h0l1-.5.4-.2h.2v-.1h0v-.2h0c-.2-1-.7-2.1-1.5-3.4h0c-2.9-4-4.3-9-4.2-15v-.2c.4-6.1,1.9-11.1,4.4-14.9,3-4.6,7.4-7.6,13.3-9.1h.2c2.7-.7,5.7-.9,9-.8,10,.6,17.4,3.9,22.2,9.9l.4.5h0c3.4,4.7,5,9.6,4.9,15l5,.3h0c3.9,1.3,5.9,3.5,5.9,6.8.5,2.1-.4,4.8-2.5,7.9v.2c-2.7,4.2-8,6.6-15.9,7.1l2.2,3.4h0l1.3,2.4h0l1.1,2.4.6,1.3v.4c3.4,10.2,2.6,19.9-2.2,29-6,11.6-15.9,17.6-29.9,18l-24.3-.9h0c-16.1-2-26.8-8.2-32.2-18.4v.2c-5.2-8.8-7.6-18.6-7.2-29.6,0-2,.2-4,.5-6v-.2c2.1-13.6,6.6-20,13.5-19.4h0c6.4,0,10.1,2.8,11.1,8.8h0c1.4,5,8.2,6.9,20.4,5.9l1.6-.4h.2" fill="#ccc"/><path d="M49.24,46.66l-1.6.4c-12.2,1-19-.9-20.4-5.8h0c-1-6-4.7-8.9-11.1-8.8h0c-7-.6-11.5,5.8-13.5,19.4v.2c-.3,2-.4,4-.5,6-.4,11,2,20.9,7.2,29.6v-.2c5.3,10.2,16,16.4,32.1,18.4h0l24.3.9c14-.5,23.9-6.5,29.9-18,4.8-9.2,5.5-18.9,2.2-29v-.4l-.7-1.3-1.1-2.3h0l-1.3-2.5h0l-2.2-3.5c7.9-.5,13.2-2.9,15.8-7.1v-.2c2.3-3.2,3.1-5.9,2.6-7.9,0-3.3-2-5.5-5.9-6.8h0l-5-.4c.1-5.4-1.5-10.3-4.9-14.9h0c0-.1-.4-.6-.4-.6-4.8-5.9-12.2-9.2-22.2-9.9-3.3-.2-6.3,0-9,.7h-.2c-5.9,1.6-10.4,4.6-13.3,9.2-2.5,3.9-4,8.9-4.4,14.9v.2c0,6,1.3,11,4.2,14.9h0c.8,1.3,1.2,2.4,1.5,3.4h0v.2h0v.1h-.2c0,.1-.4.4-.4.4l-1,.4h0l-.2-.4v-.5h0c0,.3,0,.6.2.9M47.94,43.26c-3.1-4.2-4.6-9.5-4.6-16h0v-.4h0c.4-6,1.7-10.9,4-14.9,3.2-5.6,8.3-9.3,15.3-11.1h.2c2.9-.7,6.1-1,9.7-.8,11,.7,19,4.4,24.1,11.2h0v.2l.4.5c3,4.2,4.6,8.6,4.9,13.4,1.2,0,2.4.2,3.6.5h0c4.8,1.5,7.3,4.3,7.3,8.4.6,2.5-.4,5.6-2.9,9.3h-.1c-2.4,4.2-7.1,6.8-14,7.8l.4.5v.2c.1,0,1.5,2.5,1.5,2.5h0l1.4,3.2.2.5h0c0,.1.2.6.2.6,3.4,10.7,2.7,20.9-2.3,30.6-6.3,12.2-16.9,18.6-31.6,19.1h0l-24.7-.9h-.2c-16.6-2.2-27.6-8.6-33.2-19.2h0c0-.1-.1-.2-.1-.2C2.04,79.26-.36,69.16.04,57.86c0-2,.2-4,.5-6.1h0v-.4c2.3-15.1,7.5-22.1,15.7-21.1,7.4,0,11.7,3.4,12.9,10.4,1.5,3.7,7.6,5.2,18.4,4.3l1.1-.3-.7-1.4h0v-.1" fill="#666"/><path d="M56.14,45.66v-.8c-.3-1.6-1-3.5-2.4-5.6-2.3-3.1-3.4-7.1-3.3-12,.7-10.7,5.4-17.2,14.1-19.6l7.7-.5c8.6.5,14.9,3.4,19,8.5,3.3,4.5,4.5,9.4,3.6,14.9l-.2.9c-5.2,3.9-8.2,8.4-9.1,13.4h0c-1,1-1.1,2.2-.3,3.5l.8,1.1.5.6c-9.1.8-19.2-.6-30.3-4.4M84.44,21.96c-1.3-1.4-2.9-2.1-4.8-2.1s-3.6.7-4.9,2.1c-1.4,1.4-2.1,3-2.1,4.9s.7,3.6,2.1,4.9c1.3,1.4,3,2.1,4.9,2.1s3.5-.7,4.8-2.1c1.4-1.3,2-3,2-4.9s-.7-3.5-2-4.9" fill="#3da043"/><path d="M84.44,21.96c1.4,1.4,2,3,2,4.9s-.7,3.6-2,4.9c-1.3,1.4-2.9,2.1-4.8,2.1s-3.6-.7-4.9-2.1c-1.4-1.3-2.1-3-2.1-4.9s.7-3.5,2.1-4.9c1.3-1.4,3-2.1,4.9-2.1s3.5.7,4.8,2.1" fill="#3c3939"/><path d="M76.94,56.56l1.8,1.5c.9,1,1.7,2.1,2.4,3.5,1.5,3,2.2,5.8,2.1,8.3,0,5.1-3.4,9.2-9.8,12.2-18.2,5.5-31.7,2.8-40.4-8.3l-1.1-1.4c-1.6-2.8-.7-4.6,2.7-5.4,5.7-.9,10.9-2.8,15.6-5.9l2.3-1.6,1.8-1.4c3.2-2.3,6.2-3.7,9.2-4.4,2.5-.5,4.9-.5,7.2.1,2.4.6,4.5,1.5,6.2,2.8" fill="#cb8d4e"/><path d="M94.44,31.46c1.7.9,3.6,1.3,5.7,1.2h3.4c3.1,1,3.3,3.3.8,7.1-2.8,3.9-9.1,5.6-18.8,5h0c.9-5,3.9-9.5,9.1-13.4" fill="#fc0"/><path d="M91.54,57.96l-14.6-1.4c-1.7-1.2-3.8-2.1-6.2-2.8-2.4-.6-4.8-.6-7.2-.1-3.4-.9-6.9-2-10.4-3.2l1.4-1.1c1.1-1,1.6-2.2,1.6-3.8,11.1,3.7,21.2,5.2,30.3,4.4,1.5,1.8,2.8,3.7,3.9,5.7l1.2,2.1" fill="#f3f1b9"/><path d="M83.24,69.86c0,5.3-3.2,9.9-9.8,13.8-19,8-32.8,6.3-41.5-5-1.3-2.2-.9-3.8,1.1-5,8.7,11.1,22.2,13.8,40.4,8.3,6.5-3,9.8-7.1,9.8-12.2" fill="#ad743a"/></g></svg>