<?xml version="1.0" encoding="UTF-8"?><svg id="Calque_2" xmlns="http://www.w3.org/2000/svg" viewBox="0 0 113.01 108.7"><g id="Calque_1-2"><path d="M62.64.86h.2c2.9-.7,6.1-1,9.7-.8,11,.7,19,4.4,24.1,11.2h0v.2l.4.5c3,4.2,4.6,8.6,4.9,13.4,1.2,0,2.4.2,3.6.5h0c4.8,1.5,7.3,4.3,7.3,8.4.6,2.5-.4,5.6-2.9,9.3h-.1c-2.4,4.2-7.1,6.8-14,7.8l.4.5v.2c.1,0,1.5,2.5,1.5,2.5h0l1.4,3.2.2.5h0c0,.1.2.6.2.6,3.4,10.7,2.7,20.9-2.3,30.6l-.2.2c-3.7,6.9-8.7,12-15.1,15.1h.1-.2l-2,.9h-.2c-4.1,1.7-8.8,2.6-14,2.8h0c-8.3.5-16.6.2-24.7-.9h-.2c-16.6-2.2-27.6-8.6-33.2-19.2h0c0-.1-.1-.2-.1-.2C2.04,79.16-.36,69.06.04,57.76c0-2,.2-4,.5-6.1h0v-.4c2.3-15.1,7.5-22.1,15.7-21.1,7.4,0,11.7,3.4,12.9,10.4h0c.6,1.9,2.2,3.1,4.9,3.8l13.3.5h.2l1.1-.2-.7-1.4h0v-.1c-3.1-4.2-4.6-9.5-4.6-16h0v-.4h0c.4-6,1.7-10.9,4-14.9,3.2-5.6,8.3-9.3,15.3-11.1h0M49.14,46.56l-1.2.3h-.5l-14-.5c-3.6-.9-5.7-2.6-6.3-5.2h0c-1-6-4.7-8.9-11.1-8.9h0c-7-.6-11.5,5.8-13.5,19.4v.2c-.3,2-.4,4-.5,6-.4,11,2,20.9,7.2,29.6v-.2c5.3,10.2,16,16.4,32.1,18.4h0l24.3.9c5-.1,9.6-1,13.6-2.6l1.9-.9h0c6.1-3.1,10.8-7.9,14.3-14.5,4.8-9.2,5.5-18.9,2.2-29v-.4l-.7-1.3-1.1-2.3h0l-1.3-2.5h0l-2.2-3.5c7.9-.5,13.2-2.9,15.8-7.1v-.2c2.3-3.2,3.1-5.9,2.6-7.9,0-3.3-2-5.5-5.9-6.8h0l-5-.4c.1-5.4-1.5-10.3-4.9-14.9h0c0-.1-.4-.6-.4-.6-4.8-5.9-12.2-9.2-22.2-9.9-3.3-.2-6.3,0-9,.7h-.2c-5.9,1.6-10.4,4.6-13.3,9.2-2.5,3.9-4,8.9-4.4,14.9v.2c0,6,1.3,11,4.2,14.9h0c.8,1.3,1.2,2.4,1.5,3.4h0v.2h0v.1h-.2c0,.1-.5.5-.5.5l-.9.4h-.2l-.2-.4v-.5h0c0,.3,0,.6.2.9" fill="#666"/><path d="M49.14,46.56h0l.9-.4.5-.3h.2v-.1h0v-.2h0c-.2-1-.7-2.1-1.5-3.4h0c-2.9-4-4.3-9-4.2-15v-.2c.4-6.1,1.9-11.1,4.4-14.9,3-4.6,7.4-7.6,13.3-9.1h.2c2.7-.7,5.7-.9,9-.8,10,.6,17.4,3.9,22.2,9.9l.4.5h0c3.4,4.7,5,9.6,4.9,15l5,.3h0c3.9,1.3,5.9,3.5,5.9,6.8.5,2.1-.4,4.8-2.5,7.9v.2c-2.7,4.2-8,6.6-15.9,7.1l2.2,3.4h0l1.3,2.4h0l1.1,2.4.6,1.3v.4c3.4,10.2,2.6,19.9-2.2,29-3.5,6.6-8.2,11.5-14.3,14.5h0l-1.9.9c-4,1.6-8.5,2.5-13.6,2.6l-24.3-.9h0c-16.1-2-26.8-8.2-32.2-18.4v.2c-5.2-8.8-7.6-18.6-7.2-29.6,0-2,.2-4,.5-6v-.2c2.1-13.6,6.6-20,13.5-19.4h0c6.4,0,10.1,2.8,11.1,8.8h0c.7,2.7,2.8,4.5,6.3,5.4l14,.5h.5l1.2-.4M94.34,31.36l.2-.9c.9-5.5-.3-10.4-3.6-14.9-4.1-5.1-10.4-8-19-8.5l-7.7.5c-8.7,2.4-13.4,8.9-14.1,19.6,0,4.9,1,8.9,3.3,12,1.4,2.1,2.1,4,2.3,5.6v.8c0,1.5-.5,2.8-1.6,3.8l-1.4,1.1c-.6.4-1.4.7-2.2.9l-1.5.4-1,.2-15.9-.6c-5.9-1.5-9.3-4.6-10.1-9.3-.6-3.2-2.6-4.7-6.1-4.6-4.3,0-7.2,5.1-8.7,15.1-.2,1.8-.4,3.6-.4,5.5-.4,10.1,1.7,19.1,6.5,27,4.8,8.8,14.3,14.1,28.4,15.9l23.2.9c4.5-.1,8.5-.9,12-2.3l1.7-.8c5.1-2.6,9.2-6.7,12.1-12.3,4.1-8,4.8-16.4,1.9-25.2l-1.4-3.2h0c0-.1-1.2-2.3-1.2-2.3-1.2-2-2.5-3.9-3.9-5.7l-.5-.6-.8-1.1c-.8-1.3-.7-2.5.3-3.5,9.8.6,16.1-1.1,18.8-5,2.6-3.8,2.3-6.2-.8-7.1h-2.9c0-.1-.5,0-.5,0-2.1,0-3.9-.3-5.7-1.2" fill="#ccc"/><path d="M94.34,31.36c-5.2,3.9-8.2,8.4-9.1,13.4h0c-1,1-1.1,2.2-.3,3.5l.8,1.1.5.6c-9.1.8-19.2-.6-30.3-4.4v-.8c-.3-1.6-1-3.5-2.4-5.6-2.3-3.1-3.4-7.1-3.3-12,.7-10.7,5.4-17.2,14.1-19.6l7.7-.5c8.6.5,14.9,3.4,19,8.5,3.3,4.5,4.5,9.4,3.6,14.9l-.2.9M84.34,21.86c-1.3-1.4-2.9-2.1-4.8-2.1s-3.6.7-4.9,2.1c-1.4,1.4-2.1,3-2.1,4.9s.7,3.6,2.1,4.9c1.3,1.4,3,2.1,4.9,2.1s3.5-.7,4.8-2.1c1.4-1.3,2-3,2-4.9s-.7-3.5-2-4.9" fill="#3da043"/><path d="M84.34,21.86c1.4,1.4,2,3,2,4.9s-.7,3.6-2,4.9c-1.3,1.4-2.9,2.1-4.8,2.1s-3.6-.7-4.9-2.1c-1.4-1.3-2.1-3-2.1-4.9s.7-3.5,2.1-4.9c1.3-1.4,3-2.1,4.9-2.1s3.5.7,4.8,2.1M13.54,84.96c-4.8-8-7-17-6.5-27,0-1.8.2-3.6.4-5.5,1.5-10,4.4-15.1,8.7-15.1,3.5,0,5.5,1.5,6.1,4.6.8,4.7,4.2,7.8,10.1,9.3-5.6-.7-9.9,1.5-13.1,6.6-3.4,5.6-5.3,14.6-5.8,27" fill="#3c3939"/><path d="M85.34,44.76h0c.9-5,3.9-9.5,9.1-13.4,1.7.9,3.6,1.3,5.7,1.2h3.4c3.1,1,3.3,3.3.8,7.1-2.8,3.9-9.1,5.6-18.8,5" fill="#fc0"/><path d="M56.04,45.56c11.1,3.7,21.2,5.2,30.3,4.4,1.5,1.8,2.8,3.7,3.9,5.7l1.2,2.1-14.6-1.4c-1.7-1.2-3.8-2.1-6.2-2.8-2.4-.6-4.8-.6-7.2-.1-3.4-.9-6.9-2-10.4-3.2l1.4-1.1c1.1-1,1.6-2.2,1.6-3.8M13.54,84.96c.4-12.5,2.4-21.5,5.8-27,3.1-5.1,7.4-7.4,13.1-6.6l15.9.6,1-.2,1.5-.4,5.4,5.2-1.9,1.4-.8.5-1.1.8-2.3,1.6c-4.7,3-9.9,5-15.6,5.9-2.5.5-3.7,1.6-3.5,3.3,0,.6.3,1.3.8,2.1l1.1,1.4c-2,1.1-2.4,2.8-1.1,5,8.2,10.7,20.9,12.8,38.3,6.2l3.2-1.2,1.8-1.1c2.5,6,3.2,11.7,2.2,17-3.5,1.4-7.5,2.2-12,2.3l-23.2-.9c-14.1-1.8-23.6-7.1-28.4-15.9" fill="#f3f1b9"/><path d="M32.84,73.56l-1.1-1.4c-.4-.8-.7-1.5-.8-2.1,5.9,5.3,12.7,8.6,20.2,9.8,13.5,1.5,23.8-3.8,30.8-15.7.7,2,1,3.8,1,5.6,0,4.8-3,8.6-8.6,11.6l-1.2.6-4.2,1.2c-16.1,3.8-28.2.7-36.2-9.5" fill="#336ca1"/><path d="M32.84,73.56c8,10.2,20.1,13.3,36.2,9.5l4.2-1.2,1.2-.6.5,1.2-1.8,1.1-3.2,1.2c-17.4,6.5-30.2,4.4-38.3-6.2-1.3-2.2-.9-3.8,1.1-5" fill="#e0dea2"/><path d="M31.04,70.06c-.2-1.7,1-2.8,3.5-3.3,5.7-.9,10.9-2.8,15.6-5.9l2.3-1.6,1.1-.8.8-.5,1.9-1.4c2.5-1.5,4.9-2.5,7.2-3,2.5-.5,4.9-.5,7.2.1,2.4.6,4.5,1.5,6.2,2.8l1.8,1.5c.9,1,1.7,2.1,2.4,3.5l1.1,2.8c-7.1,11.9-17.4,17.2-30.8,15.7-7.6-1.2-14.3-4.4-20.2-9.8" fill="#cb8d4e"/><path d="M50.74,51.36c.9-.3,1.6-.6,2.2-.9,3.5,1.2,7,2.3,10.4,3.2-2.4.5-4.8,1.5-7.2,3l-5.4-5.2M77.14,99.46c1-5.3.3-10.9-2.2-17,5.5-3.7,8.2-7.9,8.1-12.8,0-1.8-.3-3.6-1-5.6l-1.1-2.8c-.6-1.3-1.4-2.5-2.4-3.5l-1.8-1.5,14.6,1.4h0c0,.1,1.4,3.4,1.4,3.4,2.8,8.8,2.2,17.2-1.9,25.2-2.9,5.6-7,9.7-12.1,12.3l-1.7.8" fill="#bb8044"/><path d="M75.04,82.46l-.5-1.2c5.6-2.9,8.5-6.8,8.6-11.6,0,4.8-2.6,9.1-8.1,12.8" fill="#ad743a"/></g></svg>