<?xml version="1.0" encoding="UTF-8"?><svg id="Calque_2" xmlns="http://www.w3.org/2000/svg" viewBox="0 0 33.87 32.2"><g id="Calque_1-2"><path d="M13.21,7.9c.3-4.2,2.2-6.8,5.7-7.7h.2l2.8-.2h0c3.3.2,5.6,1.3,7.1,3.3,1,1.3,1.5,2.7,1.6,4.2h1v.2c1.4.5,2.2,1.3,2.2,2.5.2.7-.1,1.6-.9,2.7h0c-.7,1.3-2.1,2-4.2,2.3l1.1,2.2h0c1,3.3.8,6.3-.7,9.2h0c-1.9,3.7-5.1,5.5-9.5,5.6h.1l-7.4-.2c-5-.6-8.4-2.6-10-5.8h0C.31,23.1-.39,19.4.21,15.2H.21c.7-4.5,2.2-6.5,4.5-6.3,2.1,0,3.4,1,3.8,3h0c.4,1.2,2.2,1.7,5.5,1.4h.6l-.5-.8c-.9-1.3-1.3-2.8-1.3-4.8h0M28.51,9.2v-.2c.3-1.7,0-3.2-1-4.5-1.2-1.5-3.1-2.4-5.7-2.5h-2.3c-2.6.9-4,2.8-4.2,6,0,1.5.3,2.7,1,3.6,1.3,2.1.8,3.4-1.6,3.9-4.8.4-7.4-.6-7.8-3-.2-1-.8-1.4-1.9-1.4-1.3,0-2.1,1.5-2.6,4.5-.5,3.7.1,6.9,1.8,9.8,1.4,2.6,4.3,4.2,8.5,4.8l7,.2c3.6,0,6.2-1.6,7.8-4.6,1.2-2.4,1.4-4.9.6-7.5-.5-1.3-1.2-2.5-2.1-3.5-.5-.5-.5-1-.2-1.4,2.9.2,4.8-.3,5.7-1.5.8-1.1.7-1.9-.2-2.2h-1l-1.7-.3" fill="#957c15"/><path d="M28.51,9.2c-1.6,1.2-2.5,2.5-2.8,4-.4.4-.3.9.2,1.4.9,1,1.6,2.2,2.1,3.5.8,2.6.6,5.2-.6,7.5-1.5,3-4.1,4.5-7.8,4.6l-7-.2c-4.2-.5-7.1-2.1-8.5-4.8-1.7-2.8-2.3-6.1-1.8-9.8.5-3,1.3-4.5,2.6-4.5,1,0,1.6.4,1.9,1.4.4,2.4,3,3.4,7.8,3,2.4-.5,2.9-1.8,1.6-3.9-.7-.9-1-2.1-1-3.6.2-3.2,1.6-5.2,4.2-5.9h2.3c2.6,0,4.5.9,5.7,2.4,1,1.3,1.4,2.8,1.1,4.5v.2M25.41,9.2c.4-.4.7-.9.7-1.5s-.2-1-.7-1.4c-.4-.4-.9-.7-1.5-.7s-1,.2-1.5.7c-.4.4-.6.9-.6,1.4s.2,1,.6,1.5c.4.4.9.7,1.5.7s1.1-.2,1.5-.7" fill="#fc0"/><path d="M28.51,9.2l1.7.3h1c.9.3,1,1,.2,2.2s-2.7,1.7-5.7,1.5c.3-1.5,1.2-2.8,2.8-4" fill="#e86a17"/><path d="M25.41,9.2c-.4.4-.9.7-1.5.7s-1-.2-1.5-.7c-.4-.4-.6-.9-.6-1.5s.2-1,.6-1.4c.4-.4.9-.7,1.5-.7s1.1.2,1.5.7c.4.4.7.9.7,1.4,0,.6-.2,1-.7,1.5" fill="#3c3939"/></g></svg>