<?xml version="1.0" encoding="UTF-8"?><svg id="Calque_2" xmlns="http://www.w3.org/2000/svg" viewBox="0 0 33 33"><g id="Calque_1-2"><path d="M9.3,9.3c2-2,4.4-3,7.2-3s5.2,1,7.2,3,3,4.4,3,7.2-1,5.2-3,7.1h0c-2,2-4.4,3-7.2,3s-5.2-1-7.2-3-3-4.4-3-7.2,1-5.2,3-7.2M12.3,12.3c-1.2,1.2-1.8,2.6-1.8,4.2s.6,3,1.8,4.1c1.1,1.1,2.5,1.7,4.2,1.7s3-.5,4.1-1.7h0c1.1-1.2,1.7-2.6,1.7-4.2s-.6-3-1.8-4.2c-1.1-1.1-2.5-1.7-4.2-1.7s-3,.6-4.2,1.7M15.4,15.3c.3-.3.7-.5,1.1-.5s.8.2,1.1.5h0c.3.4.4.7.4,1.2,0,.4-.1.7-.4,1h0c-.3.3-.7.4-1.1.4s-.8-.1-1.1-.4h0c-.3-.3-.5-.7-.5-1.1s.2-.9.5-1.2" fill="#fff"/><path d="M9.3,9.3c-2,2-3,4.4-3,7.2s1,5.2,3,7.2,4.4,3,7.2,3,5.2-1,7.2-3h0c2-2,3-4.4,3-7.2s-1-5.2-3-7.2-4.4-3-7.2-3-5.2,1-7.2,3M6.2,6.1c2.8-2.8,6.2-4.2,10.2-4.2s7.4,1.4,10.2,4.2c2.8,2.9,4.2,6.3,4.2,10.3s-1.4,7.4-4.2,10.2-6.2,4.2-10.2,4.2-7.4-1.4-10.2-4.2-4.2-6.2-4.2-10.2,1.4-7.4,4.2-10.3M12.3,12.3c1.1-1.1,2.5-1.7,4.2-1.7s3,.6,4.2,1.7c1.2,1.2,1.8,2.6,1.8,4.2s-.6,3-1.7,4.1h0c-1.1,1.2-2.5,1.8-4.1,1.8s-3-.6-4.2-1.7c-1.2-1.2-1.8-2.5-1.8-4.1s.6-3,1.8-4.2M15.4,15.3c-.3.3-.5.7-.5,1.2s.2.8.5,1.1h0c.3.3.7.4,1.1.4s.8-.1,1.1-.4h0c.3-.4.4-.8.4-1.1,0-.4-.1-.8-.4-1.1h0c-.3-.3-.7-.5-1.1-.5s-.8.2-1.1.5" fill="#e86a17"/><path d="M4.8,4.8C8,1.6,11.9,0,16.5,0s8.4,1.6,11.7,4.8h0c3.2,3.3,4.8,7.2,4.8,11.7s-1.6,8.5-4.8,11.7c-3.2,3.2-7.1,4.8-11.7,4.8s-8.5-1.6-11.7-4.8S0,21.1,0,16.5,1.6,8.1,4.8,4.8M6.2,6.1c-2.8,2.9-4.2,6.3-4.2,10.3s1.4,7.4,4.2,10.2,6.2,4.2,10.2,4.2,7.4-1.4,10.2-4.2,4.2-6.2,4.2-10.2-1.4-7.4-4.2-10.3c-2.8-2.8-6.2-4.2-10.2-4.2s-7.4,1.4-10.2,4.2" fill="#914412"/></g></svg>