<?xml version="1.0" encoding="UTF-8"?><svg id="Calque_2" xmlns="http://www.w3.org/2000/svg" viewBox="0 0 21 43"><g id="Calque_1-2"><path d="M17,24v-13.5c0-1.8-.6-3.3-1.9-4.6-1.3-1.3-2.8-1.9-4.6-1.9s-3.3.6-4.5,1.9c-1.3,1.3-2,2.8-2,4.6v28.5h13v-15M16.5,4.5c1.7,1.7,2.5,3.7,2.5,6v30.5H2V10.5c0-2.3.8-4.3,2.5-6s3.7-2.5,6-2.5,4.3.8,6,2.5M10.7,11.1c-.5-.5-.7-1-.7-1.8s.2-1.3.7-1.8,1.1-.7,1.8-.7,1.3.2,1.8.7.8,1.1.8,1.8-.2,1.3-.8,1.8c-.5.5-1,.8-1.8.8s-1.3-.2-1.8-.8" fill="#ffe479"/><path d="M21,10.5v30.5c0,.6-.2,1-.5,1.4-.4.4-.9.6-1.5.6H2c-.6,0-1-.2-1.4-.6-.4-.4-.6-.9-.6-1.4V10.5c0-2.9,1-5.4,3.1-7.4C5.1,1,7.6,0,10.5,0s5.4,1,7.5,3.1c2,2,3,4.5,3,7.4M16.5,4.5c-1.7-1.7-3.7-2.5-6-2.5s-4.3.8-6,2.5-2.5,3.7-2.5,6v30.5h17V10.5c0-2.3-.8-4.3-2.5-6" fill="#7e6a1a"/><path d="M17,24v5H4v-5h13" fill="#deb514"/><path d="M17,24H4v-13.5c0-1.8.6-3.3,2-4.6,1.3-1.3,2.8-1.9,4.5-1.9s3.3.6,4.6,1.9c1.3,1.3,1.9,2.8,1.9,4.6v13.5M17,29v10H4v-10h13M10.7,11.1c.5.5,1.1.8,1.8.8s1.3-.2,1.8-.8c.5-.5.8-1,.8-1.8s-.2-1.3-.8-1.8c-.5-.5-1-.7-1.8-.7s-1.3.2-1.8.7-.7,1.1-.7,1.8.2,1.3.7,1.8" fill="#fc0"/></g></svg>