<?xml version="1.0" encoding="UTF-8"?><svg id="Calque_2" xmlns="http://www.w3.org/2000/svg" viewBox="0 0 45.09 45.8"><g id="Calque_1-2"><path d="M44.71,15.4c0,1.7-.5,3.1-1.6,4.3h0l-3.4,3.5,4,4.7h0c.7.9,1.1,1.9,1.3,3s0,2.2-.4,3.3c-.5,1-1.2,1.9-2.1,2.5h0l-11,7.8c-1.3.8-2.6,1.2-4.1,1s-2.8-.8-3.8-2l-1.9-2.1-2.7,2.8c-.8.8-1.8,1.4-2.9,1.6h-3.3v-.1c-1.1-.4-2-1-2.8-1.8h0L1.41,33.6C.41,32.4-.09,31.1.01,29.6c0-1.5.6-2.8,1.7-3.9l3-3.1-3-3.4c-1.1-1.3-1.6-2.7-1.5-4.3,0-1.7.8-3.1,2-4.2L12.71,1.4c.8-.7,1.7-1.1,2.8-1.3l3.2.2c1,.4,1.9,1,2.6,1.8l1.3,1.5,1.5-1.7c1.1-1.2,2.5-1.9,4.2-1.9,1.6,0,3.1.5,4.3,1.6l10.2,9.6c1.2,1.2,1.8,2.6,1.8,4.2M42.71,15.4c0-1.1-.5-2.1-1.2-2.9L31.41,2.9c-.8-.8-1.8-1.1-2.9-1.1s-2.1.5-2.8,1.2l-3.1,3.3-2.8-3.2c-.5-.6-1-1-1.7-1.2l-2.1-.2c-.7.1-1.4.4-1.9.9L3.61,11.9c-.8.7-1.3,1.7-1.3,2.8s.3,2.1,1,2.9l4.2,4.8-4.2,4.5c-.7.7-1.1,1.6-1.1,2.6s.3,1.9,1,2.7l8.6,10.3c.5.6,1.1,1,1.8,1.2h2.2c.7-.1,1.4-.5,1.9-1l4.2-4.2,3.3,3.7c.7.8,1.5,1.2,2.5,1.3s1.9-.1,2.8-.7l11-7.7c.6-.5,1.1-1,1.4-1.7.3-.7.4-1.4.2-2.2,0-.8-.4-1.4-.9-2l-5.2-6,4.7-4.9c.8-.8,1.1-1.8,1.1-2.8" fill="#85592c"/><path d="M42.71,15.4c0,1.1-.3,2-1.1,2.8l-4.7,4.9,5.2,6c.5.6.8,1.2.9,2,.1.8,0,1.5-.2,2.2-.3.7-.8,1.2-1.4,1.7l-11,7.7c-.8.6-1.8.8-2.8.7s-1.8-.6-2.5-1.3l-3.3-3.7-4.2,4.2c-.5.5-1.2.9-1.9,1.1h-2.2c-.7-.3-1.3-.7-1.8-1.3l-8.6-10.3c-.7-.8-1-1.7-1-2.7s.4-1.9,1.1-2.6l4.2-4.5-4.2-4.8c-.7-.8-1.1-1.8-1-2.9,0-1.1.5-2,1.3-2.8L14.01,2.5c.5-.5,1.2-.8,1.9-.9l2.1.2c.7.2,1.2.6,1.7,1.2l2.8,3.2,3.1-3.3c.7-.8,1.7-1.2,2.8-1.2s2,.3,2.9,1.1l10.1,9.6c.8.8,1.2,1.7,1.2,2.9M16.81,5.7L6.31,15l6.6,7.5-6.8,7.2,8.6,10.3,7.2-7.3,6.1,6.8,11-7.7-7.6-8.8,7.2-7.5-10.1-9.6-6.2,6.5-5.6-6.7" fill="#bb8044"/><path d="M16.81,5.7l5.6,6.7,6.2-6.5,10.1,9.6-7.2,7.5,7.6,8.8-11,7.7-6.1-6.8-7.2,7.3-8.6-10.3,6.8-7.2-6.6-7.5,10.5-9.3" fill="#fff"/></g></svg>