<?xml version="1.0" encoding="UTF-8"?><svg id="Calque_2" xmlns="http://www.w3.org/2000/svg" viewBox="0 0 38.46 38.04"><g id="Calque_1-2"><path d="M17.02,1.7l-2.1.2c-.7.3-1.3.7-1.7,1.3-.5.6-.7,1.3-.8,2l-.5,6.2-6.2.4c-.8,0-1.5.4-2.2.9s-1.1,1.1-1.4,1.9c-.3.8-.3,1.5,0,2.3l2.2,8.2c.2.9.8,1.7,1.6,2.2s1.7.8,2.6.7l2.1-.2-.2,2.8c-.1,1.1.2,2,.9,2.9.7.8,1.6,1.3,2.7,1.5l7.8.8c1.1.1,2-.2,2.9-.8.8-.7,1.3-1.6,1.5-2.7l.7-5.8,5.9-.5c.7,0,1.4-.3,2-.8s1.1-1,1.4-1.7c.3-.7.4-1.4.3-2.1l-1-7.9c-.2-1.1-.7-1.9-1.5-2.6-.8-.7-1.8-1-2.8-.9l-2.4.2.4-2.8c0-1.1-.2-2-.8-2.9-.7-.9-1.5-1.4-2.6-1.5l-8.8-1.4M31.13,7.8v.4c1.5,0,2.9.4,4.1,1.4,1.2,1,2,2.3,2.2,3.9l1,7.9c.1,1.1,0,2.2-.5,3.2h0c-.4,1-1.1,1.8-2,2.5-.9.6-1.9,1-3,1.1l-4.3.3-.5,4.2c-.2,1.6-.9,2.9-2.2,4-1.3,1-2.8,1.5-4.4,1.3l-7.8-.8c-1.6-.2-2.9-.9-4-2.2s-1.5-2.7-1.3-4.3v-.4c-1.3,0-2.5-.3-3.7-1h0c-1.2-.9-1.9-2-2.3-3.3L.22,17.8c-.3-1.2-.3-2.3,0-3.5.4-1.2,1.1-2.1,2-2.9,1-.8,2.1-1.2,3.2-1.2l4.5-.3.4-4.4c0-1.1.4-2.2,1.1-3.1.7-.9,1.5-1.6,2.6-2h0C15.02,0,16.12-.1,17.22.1l8.8,1.4c1.6.2,2.9,1,3.8,2.3,1,1.3,1.4,2.7,1.2,4.3" fill="#85592c"/><path d="M17.02,1.7l8.8,1.4c1,.2,1.9.7,2.6,1.5.6.9.9,1.8.8,2.9l-.4,2.8,2.4-.2c1,0,2,.2,2.8.9s1.3,1.5,1.5,2.6l1,7.9c0,.7,0,1.4-.3,2.1-.3.7-.8,1.2-1.4,1.7s-1.3.7-2,.8l-5.9.5-.7,5.8c-.2,1.1-.7,2-1.5,2.7-.9.7-1.8,1-2.9.8l-7.8-.8c-1.1-.1-2-.6-2.7-1.5s-1-1.8-.9-2.9l.2-2.8-2.1.2c-1,0-1.8-.2-2.6-.7-.8-.6-1.3-1.3-1.6-2.2l-2.2-8.2c-.2-.8-.2-1.5,0-2.3.3-.8.7-1.4,1.4-1.9.6-.5,1.3-.8,2.2-.9l6.2-.4.5-6.2c0-.8.3-1.4.8-2,.4-.6,1-1,1.7-1.3l2.1-.2M25.13,7.1l-8.8-1.4-.8,9.6-9.7.6,2.2,8.2,6.8-.5-.7,7.5,7.9.8,1.1-9,9.2-.8-1-7.9-7.2.5.9-7.6" fill="#bb8044"/><path d="M25.13,7.1l-.9,7.6,7.2-.5,1,7.9-9.2.8-1.1,9-7.9-.8.7-7.5-6.8.5-2.2-8.2,9.7-.6.8-9.6,8.8,1.4" fill="#fff"/></g></svg>