<?xml version="1.0" encoding="UTF-8"?><svg id="Calque_2" xmlns="http://www.w3.org/2000/svg" viewBox="0 0 29.9 30.2"><g id="Calque_1-2"><path d="M19.8,3.5l5.8.9.9,5.9,3.4,4.8-3.4,4.8-.9,5.9-5.8.9-4.7,3.5-4.8-3.5-5.9-.9-.9-5.9L0,15.1l3.5-4.8.9-5.9,5.9-.9L15.1,0l4.7,3.5M9.9,9.9c-1.4,1.4-2.1,3.1-2.1,5.1s.7,3.7,2.1,5.2c1.4,1.4,3.1,2.1,5.1,2.1s3.7-.7,5.2-2.1c1.4-1.4,2.1-3.2,2.1-5.2s-.7-3.7-2.1-5.1c-1.5-1.4-3.2-2.1-5.2-2.1s-3.7.7-5.1,2.1" fill="#bb8044"/><path d="M9.9,9.9c1.4-1.4,3.1-2.1,5.1-2.1s3.7.7,5.2,2.1c1.4,1.4,2.1,3.1,2.1,5.1s-.7,3.7-2.1,5.2c-1.5,1.4-3.2,2.1-5.2,2.1s-3.7-.7-5.1-2.1c-1.4-1.4-2.1-3.2-2.1-5.2s.7-3.7,2.1-5.1" fill="#3c3939"/></g></svg>