<?xml version="1.0" encoding="UTF-8"?><svg id="Calque_2" xmlns="http://www.w3.org/2000/svg" viewBox="0 0 30 122.9"><g id="Calque_1-2"><path d="M30,2v12H0V2h30M22,18v15.8l-14,3.1v-18.9h14M22,48.1v.3h-.1c0-.1.1-.3.1-.3M22,62.6v60.3h-14v-58.9l14-1.5" fill="#bb8044"/><path d="M0,2V0h30v2H0" fill="#d2975a"/><path d="M22,33.8l1.6-.3v12.6l-.9,1.1-17,2.4-1-12,3.2-.7,14-3.1M22.7,48.9l.9.5v13.1l-1.6.2-14,1.5h-1c0,.1-1-11.8-1-11.8l16.7-3.4" fill="#ecdcb8"/><path d="M22.7,48.9l-16.7,3.4,1.5-1.7-1.7-1,17-2.4-.8.9v.2c-.1,0,0,.1,0,.1l.7.4" fill="#e0d1af"/><path d="M22,14v4h-14v-4h14" fill="#b17940"/></g></svg>