<?xml version="1.0" encoding="UTF-8"?><svg id="Calque_2" xmlns="http://www.w3.org/2000/svg" viewBox="0 0 34 126.9"><g id="Calque_1-2"><path d="M32,4v-2H2v14h8v20.9l-2,.4v-19.3H2c-.6,0-1-.2-1.4-.6s-.6-.9-.6-1.4V2c0-.6.2-1,.6-1.4s.8-.6,1.4-.6h30c.6,0,1.1.2,1.5.6s.5.8.5,1.4v14c0,.6-.2,1-.5,1.4-.4.4-.9.6-1.5.6h-6v15.5l-2,.5v-18h8V4M24,66.6l2-.2v58.5c0,.6-.2,1-.5,1.4-.4.4-.9.6-1.5.6h-14c-.6,0-1-.2-1.4-.6s-.6-.9-.6-1.4v-57l2-.2v57.2h14v-58.3" fill="#85592c"/><path d="M2,4v-2h30v2H2" fill="#d2975a"/><path d="M2,4h30v12H2V4M24,20v15.8l-14,3.1v-18.9h14M24,50.2v.2h-.1c0-.1.1-.2.1-.2M24,64.6v60.3h-14v-58.9l14-1.5" fill="#bb8044"/><path d="M24,16v4h-14v-4h14" fill="#b17940"/><path d="M24,34l2-.5h.4c.4.2.7.5.9.9.2.3.4.7.4,1.1v12.6c0,.5-.1.9-.4,1.2l-.4.4.5.6.2,1v13.1c0,.5-.2.9-.5,1.3-.3.3-.7.6-1.1.7l-2,.2v-2l1.6-.2v-13.1l-.9-.5-.7-.4v-.2l.8-1,.9-1.1v-12.6l-1.6.3v-1.8M8,37.3l2-.4v2l-3.2.7,1,12,1.7,1-1.5,1.7,1,11.9h1c0-.1,0,1.6,0,1.6l-2,.2-.2-.2c-.4-.4-.7-.8-.8-1.4l-1-11.9v-.8c.1,0,.4-.6.4-.6l-.2-.4-.4-.9-1-12.1c0-.5.1-.9.4-1.3s.7-.7,1.2-.8l1.6-.4" fill="#918467"/><path d="M24,35.8l1.6-.3v12.6l-.9,1.1-17,2.4-1-12,3.2-.7,14-3.1M24.7,50.9l.9.5v13.1l-1.6.2-14,1.5h-1c0,.1-1-11.8-1-11.8l16.7-3.4" fill="#ecdcb8"/><path d="M24.7,50.9l-16.7,3.4,1.5-1.7-1.7-1,17-2.4-.8,1h-.1c0,.1.1.2.1.2l.7.4" fill="#e0d1af"/></g></svg>