<?xml version="1.0" encoding="UTF-8"?><svg id="Calque_2" xmlns="http://www.w3.org/2000/svg" viewBox="0 0 34 127"><g id="Calque_1-2"><path d="M32,4v-2H2v14h8v109h14V16h8V4M2,0h30c.6,0,1.1.2,1.4.6s.6.8.6,1.4v14c0,.6-.2,1-.6,1.4-.4.4-.9.6-1.4.6h-6v107c0,.6-.2,1-.6,1.4-.4.4-.9.6-1.4.6h-14c-.6,0-1-.2-1.4-.6s-.6-.9-.6-1.4V18H2c-.6,0-1-.2-1.4-.6s-.6-.9-.6-1.4V2c0-.6.2-1,.6-1.4s.8-.6,1.4-.6" fill="#4d7a7e"/><path d="M2,4v-2h30v2H2" fill="#c1dcde"/><path d="M2,4h30v12H2V4M24,20v105h-14V20h14" fill="#a6c9cb"/><path d="M24,20h-14v-4h14v4" fill="#85abad"/></g></svg>