<?xml version="1.0" encoding="UTF-8"?><svg id="Calque_2" xmlns="http://www.w3.org/2000/svg" viewBox="0 0 141.5 243.82"><g id="Calque_1-2"><path d="M70.8.02c20.3-.6,37.4,14.5,51.4,45.3,10.6,23.4,16.9,50.8,18.8,82.3l.5,14.2v6.6h0v.2c-.9,17.8-7.8,33.2-20.6,46.1h0c-8.6,8.6-18.3,14.5-29.1,17.8l.3,2c1.4,6.8,3.2,13.4,5.3,20,.5,1.5.5,2.9,0,4.4-.5,1.4-1.3,2.6-2.5,3.5h0c-1.2.9-2.6,1.4-4.2,1.4h-40c-1.6,0-3-.5-4.2-1.4-1.3-1-2.1-2.2-2.6-3.7h0c-.4-1.6-.3-3.1.2-4.5,2.2-5.6,4-12.1,5.4-19.4l.4-2.1c-10.9-3.3-20.7-9.2-29.3-17.8h0c-4.6-4.6-8.4-9.4-11.4-14.6h0c-5.6-9.5-8.6-20-9.2-31.4v-6.8h0c0-4.8.2-9.5.6-14v-.2c1.1-18.8,3.8-36.2,8-52.1h0c2.8-10.7,6.4-20.8,10.7-30.2C33.3,14.82,50.4-.28,70.8.32h0M21.1,46.12c-4.2,9.3-7.8,19.3-10.6,30-4.2,15.7-6.8,32.9-7.9,51.6h0c-.4,4.6-.6,9.3-.6,14.2v6.7c.6,11.2,3.5,21.3,8.9,30.5,2.9,5,6.6,9.8,11.1,14.2,8.8,8.8,18.9,14.8,30.1,17.8l-.6,3.9c-1.4,7.5-3.2,14.2-5.5,19.9-.4,1-.5,2.1-.2,3.2s.9,1.9,1.8,2.6,1.9,1,3,1h40c1.1,0,2.1-.3,3-1,.9-.6,1.5-1.5,1.8-2.5s.3-2.1,0-3.1c-2.2-6.7-4-13.4-5.4-20.2l-.7-3.9c11.2-3,21.2-8.9,30-17.8,12.5-12.6,19.2-27.5,20.1-44.8h0v-6.6l-.6-14.2c-1.8-31.2-8-58.3-18.6-81.5C106.6,16.22,90.1,1.52,70.5,2.02c-19.6-.4-36.1,14.3-49.7,44.1" fill="#85592c"/><path d="M21.1,46.12C34.7,16.22,51.2,1.52,70.8,2.02c19.5-.5,36.1,14.2,49.7,44.1,10.6,23.2,16.8,50.4,18.6,81.5l.5,14.2v6.6h0c-.9,17.4-7.6,32.3-20.1,44.9-8.8,8.8-18.8,14.7-30,17.8l.7,3.9c1.4,6.8,3.2,13.6,5.4,20.2.3,1,.3,2.1,0,3.1s-.9,1.9-1.8,2.5-1.9,1-3,1h-40c-1.1,0-2.1-.3-3-1s-1.5-1.6-1.8-2.6c-.3-1.1-.3-2.2.2-3.2,2.3-5.7,4.1-12.3,5.5-19.9l.6-3.9c-11.3-3-21.3-9-30.1-17.8-4.5-4.5-8.2-9.2-11.1-14.2-5.4-9.2-8.4-19.3-8.9-30.5v-6.7c0-4.9.2-9.6.6-14.2h0c1.1-18.6,3.8-35.8,7.9-51.6,2.8-10.6,6.3-20.6,10.6-30M134,128.02c-1.8-30.5-7.8-57.1-18.1-79.8-12.5-27.5-27.5-41.2-45.1-41.2s-32.7,13.7-45.1,41.2c-4.1,9.1-7.6,18.8-10.3,29.2-4.1,15.5-6.7,32.4-7.8,50.6-.3,4.6-.5,9.2-.6,14.1v6.2c.5,10.4,3.2,19.8,8.2,28.2,2.7,4.7,6.2,9.1,10.3,13.2,9.3,9.3,20,15.1,32.2,17.5l-1.3,8.7c-1.4,7.9-3.3,14.8-5.8,20.8h40c-2.3-6.8-4.1-13.8-5.5-20.8l-1.5-8.7c12.1-2.4,22.8-8.2,32.2-17.5,11.6-11.6,17.8-25.5,18.6-41.5v-6.2l-.5-14.1" fill="#bb8044"/><path d="M134,128.02c-1.8,13.8-7.8,25.9-18.1,36.2-9.7,9.8-21.1,15.7-34,17.8h-.2l-10.8.8-11.1-.9h-.2c-12.8-2.2-24.1-8.1-33.8-17.8-4.1-4.1-7.6-8.5-10.3-13.2-4.1-7-6.7-14.7-7.8-22.9,1.1-18.3,3.7-35.2,7.8-50.6,2.7-10.3,6.2-20.1,10.3-29.2C38.3,20.72,53.3,7.02,70.9,7.02s32.6,13.7,45.1,41.2c10.3,22.7,16.3,49.3,18.1,79.8" fill="#3da043"/><path d="M134,128.02l.5,14.1v6.2c-.8,16-7,29.9-18.6,41.5-9.3,9.3-20,15.1-32.2,17.5l-2.2.4-10.8.8-11.1-.9-1.8-.4c-12.2-2.4-22.9-8.2-32.2-17.5-4.1-4.1-7.6-8.6-10.3-13.2-5-8.5-7.8-17.9-8.2-28.2v-6.2c0-4.8.2-9.5.6-14.1,1.1,8.3,3.7,15.9,7.8,22.9,2.7,4.7,6.2,9.1,10.3,13.2,9.7,9.7,21,15.6,33.8,17.8h.2l11.1.9,10.8-.8h.3c12.9-2.2,24.3-8.1,34-17.9,10.3-10.3,16.4-22.4,18.1-36.2" fill="#35913a"/><path d="M83.7,207.22l1.5,8.7h-1c0,.1-13.5,1.1-13.5,1.1l-13.8-1.1h-.5l1.3-8.8,1.8.4,11.1.9,10.8-.8,2.2-.4" fill="#855729"/><path d="M85.2,215.92c1.4,7,3.3,14,5.5,20.8h-40c2.4-6,4.3-12.9,5.8-20.8h.5l13.8,1.1,13.5-1h1" fill="#9a6835"/></g></svg>