<?xml version="1.0" encoding="UTF-8"?><svg id="Calque_2" xmlns="http://www.w3.org/2000/svg" viewBox="0 0 118.98 254.2"><g id="Calque_1-2"><path d="M41.04,4.8c.6-1.8,1.7-3.2,3.5-4,1.7-.9,3.5-1,5.3-.5,1.8.6,3.2,1.7,4.1,3.5l37.2,72c.7,1.4.9,2.9.7,4.5-.3,1.5-1,2.8-2.2,3.9-1.2,1-2.6,1.6-4.2,1.8h-1l20.4,62.3c.5,1.5.5,3,0,4.5h0c-.5,1.5-1.4,2.7-2.8,3.5l-.9.6,17.2,37.9c.6,1.4.8,2.8.5,4.3-.3,1.5-1,2.7-2.1,3.8-1.1,1-2.4,1.6-3.9,1.8h0l-39.2,4.4,4.5,37.3c.2,1.3,0,2.6-.6,3.8-.6,1.2-1.5,2.2-2.6,2.9h0c-1.2.7-2.4,1.1-3.8,1.1h-25.2c-1.3,0-2.5-.3-3.6-1s-2-1.6-2.6-2.7h0c-.6-1.2-.9-2.4-.8-3.7l2-34-33.2,3.8c-1.5.2-3-.1-4.3-.9-1.3-.8-2.3-1.9-2.9-3.3h0c-.6-1.4-.7-2.9-.3-4.4l13.6-56.3h-1.7c-1.5-.2-2.8-.8-3.9-1.7-1.2-1-1.9-2.1-2.3-3.6h0c-.4-1.4-.4-2.8,0-4.2l17.9-50.8h-.2c-1.6,0-3-.3-4.3-1.1-1.3-.9-2.3-2-2.8-3.5-.6-1.5-.6-3-.1-4.5L41.24,4.8h0M45.44,2.5c-1.2.6-2.1,1.6-2.5,2.9l-24.8,77.5c-.4,1.1-.3,2.1,0,3.2.4,1.1,1,1.9,2,2.5s2,.9,3.2.8l3.2-.3-18.9,53.7c-.4,1-.4,2,0,3,.3,1,.8,1.9,1.7,2.6.8.7,1.8,1,2.8,1.1l4.1.3-14.1,58.7c-.3,1.1-.2,2.1.2,3.1.4,1,1.1,1.8,2.1,2.4,1,.5,2,.8,3.1.6l35.4-4.1-2.1,36.4c0,.9.1,1.8.6,2.6.4.8,1.1,1.5,1.8,2,.8.5,1.6.7,2.6.7h25.2c1,0,1.9-.2,2.7-.8.8-.5,1.4-1.2,1.9-2.1.4-.9.5-1.8.4-2.8l-4.8-39.3,41.2-4.6c1-.1,2-.6,2.8-1.3s1.3-1.6,1.5-2.7c.2-1.1,0-2.1-.3-3.1l-18.2-40.1c1,0,1.8-.3,2.7-.8.9-.6,1.6-1.5,2-2.6s.4-2.1,0-3.2l-21.2-64.7,3.6-.3c1.1,0,2.1-.5,3-1.3.8-.8,1.3-1.7,1.5-2.8.2-1.1,0-2.2-.5-3.2L52.24,4.5c-.6-1.2-1.6-2.1-2.9-2.5s-2.6-.3-3.8.4" fill="#85592c"/><path d="M45.44,2.5c1.2-.7,2.5-.8,3.8-.4s2.3,1.2,2.9,2.5l37.1,72c.5,1,.7,2.1.5,3.2s-.7,2-1.5,2.8c-.9.8-1.9,1.2-3,1.3l-3.6.3,21.2,64.7c.4,1.1.4,2.1,0,3.2-.4,1.1-1.1,1.9-2,2.6-.8.5-1.7.8-2.7.8l18.2,40.1c.4,1,.6,2,.3,3.1-.2,1.1-.7,2-1.5,2.7s-1.8,1.2-2.8,1.3l-41.2,4.6,4.8,39.3c0,.9,0,1.9-.4,2.8s-1.1,1.6-1.9,2.1-1.7.8-2.7.8h-25.2c-.9,0-1.8-.2-2.6-.7-.8-.5-1.4-1.2-1.8-2-.5-.8-.7-1.7-.6-2.6l2.1-36.4-35.4,4.1c-1.1.1-2.1-.1-3.1-.6-1-.6-1.7-1.4-2.1-2.4-.4-1-.5-2-.2-3.1l14.1-58.7-4.1-.3c-1.1,0-2-.4-2.8-1.1-.8-.7-1.4-1.6-1.7-2.6-.3-1-.3-2,0-3l18.9-53.7-3.2.3c-1.1,0-2.2-.2-3.2-.8-1-.6-1.6-1.4-2-2.5-.4-1.1-.4-2.1,0-3.2L42.84,5.5c.4-1.3,1.2-2.3,2.5-2.9M79.64,94.2l-4.7-14.4,9.8-.8L47.54,7l-24.8,77.5,11-1-2.2,6.1-19.3,55,9.9.6-3.1,12.7-12.4,51.8,41.4-4.7-.5,9.6-1.9,32.7h25.2l-4.5-36.5-.9-7.8,46.2-5.2-20.5-45-1.2-2.8,7.9.6-18.5-56.2" fill="#bb8044"/><path d="M79.64,94.2l18.5,56.2-7.9-.6-67.9-4.8-9.9-.6,19.3-55,47.9,4.7M91.44,152.7l20.5,45-46.2,5.2-17.4,2-41.4,4.7,12.4-51.8,72.2-5.2M33.94,83.5l-11,1L47.74,7l37.2,72-9.8.8-41.1,3.7" fill="#3da043"/><path d="M33.94,83.5l41.1-3.7,4.7,14.4-47.9-4.7,2.2-6.1M90.24,149.9l1.2,2.8-72.2,5.2,3.1-12.7,67.9,4.8" fill="#35913a"/><path d="M65.64,202.9l.9,7.8-18.8,3.8.5-9.6,17.4-2" fill="#855729"/><path d="M66.64,210.7l4.5,36.5h-25.2l1.9-32.7,18.8-3.8" fill="#9a6835"/></g></svg>