<?xml version="1.0" encoding="UTF-8"?><svg id="Calque_2" xmlns="http://www.w3.org/2000/svg" viewBox="0 0 256 256"><g id="Calque_1-2"><path d="M256,54.75v2.15l-69.15-1.15.2-3.1.05-1.5,68.9,3.6M0,56.9v-2.15l59.2,3.1-59.2-.95M159.65,63.35l.4-3.2,44.85,4.9-.35,3.2-44.9-4.9M170.25,205.05l-127.65,13.5-.3-4.6,127.95-8.9" fill="#a16e3b"/><path d="M170.25,205.05l-127.95,8.9-2.55.15-1.05-15.6,3.15-2.65-3.5-2.2-.35-4.5,51.2-3.55,99.45-6.9.5,6.9.7,9.85-3.2,2.55,3.55,2.4.2,3.25-20.15,1.4M0,54.75v-25.05l80.65,4.2-.85,16.8-3.25,1.95-.25.15,3.25,2.8-.2,3.3-20.15-1.05L0,54.75M256,29.7v25.05l-68.9-3.6-2.55-.15.85-15.65,3.4-2.2-3.15-2.6.2-4.55,70.15,3.7" fill="#c98a4b"/><path d="M256,29.7l-70.15-3.7-.2,4.55,3.15,2.6-3.4,2.2-.85,15.65,2.55.15-.05,1.5h-110.5l3.25-1.95.85-16.8L0,29.7V0h256v29.7M256,93.65v56.35l-43,1.85.2,3.8.9,21.25,41.9-1.8v10.5h-66.85l-.5-6.9-99.45,6.9H0v-10.5l109-4.8-.95-22.15-.15-2.8L0,150v-56.35h256" fill="#bb8044"/><path d="M256,150v3.55l-42.8,2.1-.2-3.8,43-1.85M0,153.55v-3.55l107.9-4.65.15,2.8L0,153.55" fill="#a8733d"/><path d="M256,56.9v36.75H0v-36.75l59.2.95,20.15,1.05.2-3.3-3.25-2.8.25-.15h110.5l-.2,3.1,69.15,1.15M256,185.6v70.4H0v-70.4h89.2l-51.2,3.55.35,4.5,3.5,2.2-3.15,2.65,1.05,15.6,2.55-.15.3,4.6,127.65-13.5,20.15-1.4-.2-3.25-3.55-2.4,3.2-2.55-.7-9.85h66.85M204.55,68.25l.35-3.2-44.85-4.9-.4,3.2-2.25,21.75,44.8,4.85,2.35-21.7" fill="#b47b42"/><path d="M256,153.55v21.55l-41.9,1.8-.9-21.25,42.8-2.1M0,175.1v-21.55l108.05-5.4.95,22.15L0,175.1" fill="#b17940"/><path d="M159.65,63.35l44.9,4.9-2.35,21.7-44.8-4.85,2.25-21.75" fill="#aa743e"/></g></svg>