<?xml version="1.0" encoding="UTF-8"?><svg id="Calque_2" xmlns="http://www.w3.org/2000/svg" viewBox="0 0 54 54"><g id="Calque_1-2"><path d="M28.9,3.85c0-.5-.18-.93-.55-1.3-.37-.37-.82-.55-1.35-.55-.57,0-1.03.18-1.4.55-.37.37-.55.8-.55,1.3l.5,3c-4.93.3-9.22,2.25-12.85,5.85-3.6,3.63-5.55,7.93-5.85,12.9l-3-.5c-.5,0-.93.18-1.3.55s-.55.82-.55,1.35.18.98.55,1.35.8.55,1.3.55l3-.5c.3,4.97,2.25,9.25,5.85,12.85,3.63,3.63,7.92,5.6,12.85,5.9l-.5,3c0,.5.18.93.55,1.3.37.37.83.55,1.4.55.53,0,.98-.18,1.35-.55.37-.37.55-.8.55-1.3l-.5-3c4.93-.3,9.2-2.25,12.8-5.85l.05-.05c3.6-3.6,5.57-7.88,5.9-12.85l2.95.5c.5,0,.93-.18,1.3-.55.4-.37.6-.82.6-1.35s-.2-.98-.6-1.35c-.37-.37-.8-.55-1.3-.55l-2.95.5c-.33-4.97-2.32-9.27-5.95-12.9-3.6-3.6-7.87-5.55-12.8-5.85l.5-3M14.8,14.9l.05-.05c3.13-3.13,6.87-4.78,11.2-4.95l.95,5.2.9-5.2c4.33.17,8.07,1.82,11.2,4.95,3.17,3.17,4.85,6.93,5.05,11.3l-5.25.85,5.25.9c-.2,4.37-1.88,8.12-5.05,11.25-3.13,3.13-6.87,4.82-11.2,5.05l-.9-5.3-.95,5.3c-4.33-.23-8.08-1.92-11.25-5.05-3.13-3.13-4.78-6.88-4.95-11.25l5.2-.9-5.2-.9c.17-4.33,1.82-8.07,4.95-11.2M16.25,16.35c-2.37,2.3-3.77,5-4.2,8.1l3.35.6c.47.07.87.28,1.2.65.3.37.45.8.45,1.3s-.15.93-.45,1.3c-.33.37-.73.6-1.2.7l-3.35.55c.43,3.13,1.83,5.87,4.2,8.2h-.05c2.37,2.33,5.1,3.75,8.2,4.25l.65-3.45c.07-.47.3-.85.7-1.15.37-.33.78-.5,1.25-.5.5,0,.93.17,1.3.5.37.3.6.7.7,1.2l.55,3.4c3.1-.5,5.82-1.92,8.15-4.25,2.37-2.37,3.8-5.1,4.3-8.2l-3.45-.55c-.47-.1-.85-.33-1.15-.7-.33-.4-.5-.83-.5-1.3,0-.5.17-.93.5-1.3.3-.37.7-.58,1.2-.65l3.4-.55c-.53-3.13-1.97-5.87-4.3-8.2-2.33-2.37-5.05-3.77-8.15-4.2l-.55,3.35c-.1.47-.33.87-.7,1.2l-1.3.45c-.47,0-.88-.15-1.25-.45-.4-.33-.63-.73-.7-1.2l-.65-3.35c-3.1.43-5.8,1.83-8.1,4.2l-.05.05M5.1,23.3c.7-4.57,2.77-8.57,6.2-12,3.43-3.43,7.42-5.5,11.95-6.2l-.15-.9-.05-.35c0-1.03.38-1.93,1.15-2.7.73-.77,1.67-1.15,2.8-1.15s2.03.38,2.8,1.15c.73.77,1.1,1.67,1.1,2.7v.35l-.15.9c4.5.7,8.47,2.77,11.9,6.2,3.43,3.43,5.52,7.43,6.25,12l.9-.15.3-.05c1.03,0,1.95.38,2.75,1.15l-.1-.05c.83.77,1.25,1.7,1.25,2.8s-.42,2.08-1.25,2.85l.1-.05c-.8.73-1.72,1.1-2.75,1.1h-.3l-.9-.15c-.73,4.53-2.8,8.52-6.2,11.95l-.05.05c-3.43,3.4-7.4,5.47-11.9,6.2l.15.9v.3c0,1.03-.37,1.95-1.1,2.75-.77.73-1.7,1.1-2.8,1.1s-2.07-.37-2.8-1.1c-.77-.8-1.15-1.72-1.15-2.75l.05-.3.15-.9c-4.53-.73-8.52-2.82-11.95-6.25-3.43-3.43-5.5-7.42-6.2-11.95l-.9.15h-.35c-1.03,0-1.93-.37-2.7-1.1-.77-.77-1.15-1.7-1.15-2.8s.38-2.02,1.15-2.75c.77-.77,1.67-1.15,2.7-1.15l.35.05.9.15" fill="rgba(60,57,57,.5)"/><path d="M14.8,14.9c-3.13,3.13-4.78,6.87-4.95,11.2l5.2.9-5.2.9c.17,4.37,1.82,8.12,4.95,11.25,3.17,3.13,6.92,4.82,11.25,5.05l.95-5.3.9,5.3c4.33-.23,8.07-1.92,11.2-5.05,3.17-3.13,4.85-6.88,5.05-11.25l-5.25-.9,5.25-.85c-.2-4.37-1.88-8.13-5.05-11.3-3.13-3.13-6.87-4.78-11.2-4.95l-.9,5.2-.95-5.2c-4.33.17-8.07,1.82-11.2,4.95l-.05.05M28.9,3.85l-.5,3c4.93.3,9.2,2.25,12.8,5.85,3.63,3.63,5.62,7.93,5.95,12.9l2.95-.5c.5,0,.93.18,1.3.55.4.37.6.82.6,1.35s-.2.98-.6,1.35c-.37.37-.8.55-1.3.55l-2.95-.5c-.33,4.97-2.3,9.25-5.9,12.85l-.05.05c-3.6,3.6-7.87,5.55-12.8,5.85l.5,3c0,.5-.18.93-.55,1.3-.37.37-.82.55-1.35.55-.57,0-1.03-.18-1.4-.55-.37-.37-.55-.8-.55-1.3l.5-3c-4.93-.3-9.22-2.27-12.85-5.9-3.6-3.6-5.55-7.88-5.85-12.85l-3,.5c-.5,0-.93-.18-1.3-.55s-.55-.82-.55-1.35.18-.98.55-1.35.8-.55,1.3-.55l3,.5c.3-4.97,2.25-9.27,5.85-12.9,3.63-3.6,7.92-5.55,12.85-5.85l-.5-3c0-.5.18-.93.55-1.3.37-.37.83-.55,1.4-.55.53,0,.98.18,1.35.55.37.37.55.8.55,1.3" fill="#fff"/></g></svg>