<?xml version="1.0" encoding="UTF-8"?><svg id="Calque_2" xmlns="http://www.w3.org/2000/svg" viewBox="0 0 113.11 109.02"><g id="Calque_1-2"><path d="M62.7.87l.15-.05c2.9-.7,6.12-.95,9.65-.75,10.97.67,19,4.4,24.1,11.2l.05.1.05.1.35.45c2.97,4.17,4.6,8.63,4.9,13.4,1.23,0,2.43.18,3.6.55l.1.05h-.05c4.83,1.5,7.28,4.32,7.35,8.45.57,2.47-.4,5.57-2.9,9.3l-.1.1c-2.43,4.13-7.1,6.68-14,7.65l.35.55.15.25,1.35,2.5v.05l1.45,3.2.25.55v.1l.15.45c3.43,10.7,2.65,20.9-2.35,30.6l-.15.2c-3.67,6.93-8.7,11.98-15.1,15.15l.15-.1-.25.15-2,.9-.25.05c-4.13,1.67-8.8,2.58-14,2.75h-.05c-8.33.53-16.55.22-24.65-.95l-.2-.05c-16.57-2.2-27.63-8.58-33.2-19.15l-.05-.1-.1-.15C2.08,79.37-.38,69.23.05,57.97c.07-2,.23-4.03.5-6.1v-.1l.05-.3c2.3-15.1,7.53-22.13,15.7-21.1,7.4-.03,11.7,3.43,12.9,10.4v.05c.6,1.8,2.23,3.03,4.9,3.7l13.35.5.2-.05h-.05l1.1-.25-.7-1.4-.05-.1-.05-.05c-3.1-4.2-4.62-9.53-4.55-16v-.4c.37-5.93,1.68-10.88,3.95-14.85,3.2-5.63,8.3-9.32,15.3-11.05h.1M49.25,46.62l-1.15.3-.5.1-14-.55c-3.57-.87-5.68-2.62-6.35-5.25v-.1c-1.03-5.93-4.73-8.85-11.1-8.75h-.05c-6.97-.63-11.48,5.83-13.55,19.4v.15c-.27,2.03-.43,4.05-.5,6.05-.43,11,1.98,20.88,7.25,29.65l-.05-.2c5.33,10.23,16.05,16.37,32.15,18.4h-.1l24.3.95c5.03-.13,9.55-1.02,13.55-2.65l1.95-.85.1-.05c6.07-3.03,10.83-7.87,14.3-14.5,4.77-9.2,5.52-18.88,2.25-29.05l-.1-.4-.55-1.3-1.1-2.3v-.05l-1.3-2.4v-.05l-2.2-3.4c7.93-.53,13.2-2.9,15.8-7.1l.1-.15c2.17-3.2,3.02-5.85,2.55-7.95-.07-3.27-2.05-5.52-5.95-6.75l-.05-.05-5-.3c.13-5.37-1.5-10.33-4.9-14.9l-.05-.1-.45-.55c-4.83-5.93-12.23-9.22-22.2-9.85-3.33-.2-6.35.03-9.05.7l-.2.05c-5.93,1.5-10.38,4.53-13.35,9.1-2.53,3.87-4,8.85-4.4,14.95v.25c-.07,6.03,1.33,11,4.2,14.9l.05.1c.77,1.23,1.25,2.33,1.45,3.3v.3h.05l-.2.15-.5.3-.9.4h-.15l-.2-.35-.1-.45v-.1c-.03.33.03.65.2.95" fill="#666"/><path d="M49.25,46.62h.1v-.05h.15l.9-.4.5-.3.2-.15h-.05v-.3c-.2-.97-.68-2.07-1.45-3.3l-.05-.1c-2.87-3.9-4.27-8.87-4.2-14.9v-.25c.4-6.1,1.87-11.08,4.4-14.95,2.97-4.57,7.42-7.6,13.35-9.1l.2-.05c2.7-.67,5.72-.9,9.05-.7,9.97.63,17.37,3.92,22.2,9.85l.45.55.05.1c3.4,4.57,5.03,9.53,4.9,14.9l5,.3.05.05c3.9,1.23,5.88,3.48,5.95,6.75.47,2.1-.38,4.75-2.55,7.95l-.1.15c-2.6,4.2-7.87,6.57-15.8,7.1l2.2,3.4v.05l1.3,2.4v.05l1.1,2.3.55,1.3.1.4c3.27,10.17,2.52,19.85-2.25,29.05-3.47,6.63-8.23,11.47-14.3,14.5l-.1.05-1.95.85c-4,1.63-8.52,2.52-13.55,2.65l-24.3-.95h.1c-16.1-2.03-26.82-8.17-32.15-18.4l.05.2c-5.27-8.77-7.68-18.65-7.25-29.65.07-2,.23-4.02.5-6.05v-.15c2.07-13.57,6.58-20.03,13.55-19.4h.05c6.37-.1,10.07,2.82,11.1,8.75v.1c.67,2.63,2.78,4.38,6.35,5.25l14,.55.5-.1,1.15-.3M94.45,31.32l.2-.85c.93-5.47-.27-10.43-3.6-14.9-4.07-5.13-10.4-7.97-19-8.5l-7.65.55c-8.7,2.37-13.38,8.88-14.05,19.55-.07,4.87,1.03,8.87,3.3,12,1.37,2.13,2.15,4.02,2.35,5.65l.05.8c0,1.5-.53,2.75-1.6,3.75l-1.4,1.05c-.63.37-1.38.68-2.25.95l-1.5.4-.95.2-15.95-.65c-5.93-1.47-9.3-4.57-10.1-9.3-.6-3.17-2.63-4.72-6.1-4.65-4.27.07-7.17,5.12-8.7,15.15-.23,1.83-.38,3.65-.45,5.45-.43,10.07,1.75,19.08,6.55,27.05,4.8,8.77,14.27,14.05,28.4,15.85l23.25.9c4.47-.1,8.47-.87,12-2.3l1.7-.75c5.13-2.57,9.17-6.67,12.1-12.3,4.13-8,4.78-16.42,1.95-25.25l-1.4-3.2-.1-.15-1.15-2.15c-1.17-2.03-2.48-3.93-3.95-5.7l-.5-.6-.85-1.15c-.77-1.33-.65-2.5.35-3.5,9.77.57,16.05-1.1,18.85-5,2.57-3.8,2.32-6.18-.75-7.15l-2.95-.1-.45.05c-2.07.07-3.95-.33-5.65-1.2" fill="#ccc"/><path d="M94.45,31.32c-5.2,3.9-8.23,8.37-9.1,13.4h.05c-1,1-1.12,2.17-.35,3.5l.85,1.15.5.6c-9.1.8-19.22-.65-30.35-4.35l-.05-.8c-.2-1.63-.98-3.52-2.35-5.65-2.27-3.13-3.37-7.13-3.3-12,.67-10.67,5.35-17.18,14.05-19.55l7.65-.55c8.6.53,14.93,3.37,19,8.5,3.33,4.47,4.53,9.43,3.6,14.9l-.2.85M84.4,21.82c-1.33-1.37-2.95-2.05-4.85-2.05s-3.57.68-4.9,2.05c-1.37,1.37-2.05,3-2.05,4.9s.68,3.57,2.05,4.9c1.33,1.37,2.97,2.05,4.9,2.05s3.52-.68,4.85-2.05c1.37-1.33,2.05-2.97,2.05-4.9s-.68-3.53-2.05-4.9" fill="#3da043"/><path d="M84.4,21.82c1.37,1.37,2.05,3,2.05,4.9s-.68,3.57-2.05,4.9c-1.33,1.37-2.95,2.05-4.85,2.05s-3.57-.68-4.9-2.05c-1.37-1.33-2.05-2.97-2.05-4.9s.68-3.53,2.05-4.9c1.33-1.37,2.97-2.05,4.9-2.05s3.52.68,4.85,2.05M13.6,85.02c-4.8-7.97-6.98-16.98-6.55-27.05.07-1.8.22-3.62.45-5.45,1.53-10.03,4.43-15.08,8.7-15.15,3.47-.07,5.5,1.48,6.1,4.65.8,4.73,4.17,7.83,10.1,9.3-5.6-.7-9.95,1.52-13.05,6.65-3.4,5.57-5.32,14.58-5.75,27.05" fill="#3c3939"/><path d="M85.4,44.72h-.05c.87-5.03,3.9-9.5,9.1-13.4,1.7.87,3.58,1.27,5.65,1.2l.45-.05,2.95.1c3.07.97,3.32,3.35.75,7.15-2.8,3.9-9.08,5.57-18.85,5" fill="#fc0"/><path d="M56.05,45.62c11.13,3.7,21.25,5.15,30.35,4.35,1.47,1.77,2.78,3.67,3.95,5.7l1.15,2.15-14.6-1.35c-1.7-1.23-3.75-2.15-6.15-2.75-2.37-.6-4.78-.63-7.25-.1-3.43-.93-6.92-2-10.45-3.2l1.4-1.05c1.07-1,1.6-2.25,1.6-3.75M13.6,85.02c.43-12.47,2.35-21.48,5.75-27.05,3.1-5.13,7.45-7.35,13.05-6.65l15.95.65.95-.2,1.5-.4,5.45,5.25-1.95,1.35-.75.55-1.05.8-2.35,1.65c-4.67,3.03-9.87,4.98-15.6,5.85-2.5.53-3.65,1.63-3.45,3.3.07.6.32,1.28.75,2.05l1.1,1.45c-2.03,1.13-2.4,2.78-1.1,4.95,8.17,10.67,20.95,12.75,38.35,6.25l3.15-1.25,1.75-1.05c2.47,6.03,3.18,11.68,2.15,16.95-3.53,1.43-7.53,2.2-12,2.3l-23.25-.9c-14.13-1.8-23.6-7.08-28.4-15.85" fill="#f3f1b9"/><path d="M32.95,73.62l-1.1-1.45c-.43-.77-.68-1.45-.75-2.05,5.9,5.33,12.65,8.58,20.25,9.75,13.47,1.47,23.75-3.77,30.85-15.7.7,1.97,1.03,3.83,1,5.6-.1,4.77-2.97,8.62-8.6,11.55l-1.25.6-4.25,1.2c-16.1,3.83-28.15.67-36.15-9.5" fill="#336ca1"/><path d="M32.95,73.62c8,10.17,20.05,13.33,36.15,9.5l4.25-1.2,1.25-.6.5,1.2-1.75,1.05-3.15,1.25c-17.4,6.5-30.18,4.42-38.35-6.25-1.3-2.17-.93-3.82,1.1-4.95" fill="#e0dea2"/><path d="M31.1,70.12c-.2-1.67.95-2.77,3.45-3.3,5.73-.87,10.93-2.82,15.6-5.85l2.35-1.65,1.05-.8.75-.55,1.95-1.35c2.47-1.5,4.88-2.5,7.25-3,2.47-.53,4.88-.5,7.25.1,2.4.6,4.45,1.52,6.15,2.75l1.8,1.5c.93,1,1.72,2.15,2.35,3.45l1.15,2.75c-7.1,11.93-17.38,17.17-30.85,15.7-7.6-1.17-14.35-4.42-20.25-9.75" fill="#cb8d4e"/><path d="M50.8,51.37c.87-.27,1.62-.58,2.25-.95,3.53,1.2,7.02,2.27,10.45,3.2-2.37.5-4.78,1.5-7.25,3l-5.45-5.25M77.25,99.47c1.03-5.27.32-10.92-2.15-16.95,5.5-3.67,8.2-7.92,8.1-12.75.03-1.77-.3-3.63-1-5.6l-1.15-2.75c-.63-1.3-1.42-2.45-2.35-3.45l-1.8-1.5,14.6,1.35.1.15,1.4,3.2c2.83,8.83,2.18,17.25-1.95,25.25-2.93,5.63-6.97,9.73-12.1,12.3l-1.7.75" fill="#bb8044"/><path d="M75.1,82.52l-.5-1.2c5.63-2.93,8.5-6.78,8.6-11.55.1,4.83-2.6,9.08-8.1,12.75" fill="#ad743a"/></g></svg>