<?xml version="1.0" encoding="UTF-8"?><svg id="Calque_2" xmlns="http://www.w3.org/2000/svg" viewBox="0 0 21.99 20.35"><g id="Calque_1-2"><path d="M17.15,2l1.45-.1c.5.17.88.48,1.15.95.27.47.32.95.15,1.45l-1.5,5.9,1.5,5.85c.13.5.08.98-.15,1.45s-.6.78-1.1.95l-1.5-.05L3.15,12.05c-.47-.23-.8-.6-1-1.1s-.2-1,0-1.5.53-.85,1-1.05l14-6.4M18,16.55l-1.65-6.35H4l14,6.35" fill="#d9cdaf"/><path d="M17.15,2L3.15,8.4c-.47.2-.8.55-1,1.05s-.2,1,0,1.5.53.87,1,1.1l14,6.35,1.5.05c.5-.17.87-.48,1.1-.95s.28-.95.15-1.45l-1.5-5.85,1.5-5.9c.17-.5.12-.98-.15-1.45-.27-.47-.65-.78-1.15-.95l-1.45.1M.3,11.7c-.4-1-.4-2,0-3s1.08-1.72,2.05-2.15L16.35.15l2.9-.15c1,.33,1.75.97,2.25,1.9.5.93.62,1.9.35,2.9l-1.4,5.4,1.4,5.35c.27,1,.15,1.97-.35,2.9-.47.93-1.2,1.57-2.2,1.9h-.05l-2.9-.15L2.35,13.85c-.97-.43-1.65-1.15-2.05-2.15" fill="#9f8e67"/><path d="M18,16.55l-14-6.35h12.35l1.65,6.35" fill="#d3bf8f"/></g></svg>