<?xml version="1.0" encoding="UTF-8"?><svg id="Calque_2" xmlns="http://www.w3.org/2000/svg" viewBox="0 0 35 38"><g id="Calque_1-2"><path d="M17.5,1.95c4.3,0,7.97,1.52,11,4.55,3,3.03,4.5,6.7,4.5,11s-1.5,7.92-4.5,10.95l-.05.05c-3.03,3-6.68,4.5-10.95,4.5s-7.97-1.5-11-4.5c-3.03-3.03-4.55-6.7-4.55-11,0-4.27,1.52-7.93,4.55-11,3.07-3.03,6.73-4.55,11-4.55M17.5,3.95c-3.77,0-6.98,1.3-9.65,3.9-2.6,2.67-3.9,5.88-3.9,9.65,0,3.73,1.3,6.92,3.9,9.55,2.67,2.67,5.88,4,9.65,4,3.73,0,6.92-1.33,9.55-4,2.67-2.63,4-5.82,4-9.55,0-3.77-1.33-6.98-4-9.65-2.63-2.6-5.82-3.9-9.55-3.9" fill="#cbcbcb"/><path d="M17.5,3.95c3.73,0,6.92,1.3,9.55,3.9,2.67,2.67,4,5.88,4,9.65,0,3.73-1.33,6.92-4,9.55-2.63,2.67-5.82,4-9.55,4-3.77,0-6.98-1.33-9.65-4-2.6-2.63-3.9-5.82-3.9-9.55,0-3.77,1.3-6.98,3.9-9.65,2.67-2.6,5.88-3.9,9.65-3.9" fill="#e5e5e5"/><path d="M0,18v-.5c0-4.83,1.68-8.97,5.05-12.4l.05-.05C8.53,1.68,12.67,0,17.5,0s8.95,1.68,12.35,5.05v.05c3.43,3.43,5.15,7.57,5.15,12.4v.5c-.13,4.63-1.85,8.58-5.15,11.85-3.4,3.43-7.52,5.15-12.35,5.15s-8.97-1.72-12.4-5.15h-.05C1.82,26.58.13,22.63,0,18M17.5,1.95c-4.27,0-7.93,1.52-11,4.55-3.03,3.07-4.55,6.73-4.55,11,0,4.3,1.52,7.97,4.55,11,3.03,3,6.7,4.5,11,4.5s7.92-1.5,10.95-4.5l.05-.05c3-3.03,4.5-6.68,4.5-10.95s-1.5-7.97-4.5-11c-3.03-3.03-6.7-4.55-11-4.55" fill="#e9e9e9"/><path d="M35,18v2.5c0,4.83-1.72,8.95-5.15,12.35-3.4,3.43-7.52,5.15-12.35,5.15s-8.97-1.72-12.4-5.15h-.05C1.68,29.45,0,25.33,0,20.5v-2.5c.13,4.63,1.82,8.58,5.05,11.85h.05c3.43,3.43,7.57,5.15,12.4,5.15s8.95-1.72,12.35-5.15c3.3-3.27,5.02-7.22,5.15-11.85"/></g></svg>