<?xml version="1.0" encoding="UTF-8"?><svg id="Calque_2" xmlns="http://www.w3.org/2000/svg" viewBox="0 0 190 49"><g id="Calque_1-2"><path d="M186,5.35l-.05-.05.05.7v5.3l-2.4,2.4,2.4,2.4v22.9c0,1.33-.67,2-2,2h-34.95l-1.55-1.55-1.55,1.55h-42.55l-2.75-2.75-2.75,2.75H6c-1.33,0-2-.67-2-2v-3.6l2.75-2.75-2.75-2.75V6l.05-.5.05-.2c.17-.87.8-1.3,1.9-1.3h17.05l2.25,2.25,2.25-2.25h9.35l2.8,2.8,2.8-2.8h141.5c1.1,0,1.77.45,2,1.35" fill="#97714a"/><path d="M186,5.35c-.23-.9-.9-1.35-2-1.35H42.5l-2.8,2.8-2.8-2.8h-9.35l-2.25,2.25-2.25-2.25H6c-1.1,0-1.73.43-1.9,1.3l-.05.2-.05.5v23.9l2.75,2.75-2.75,2.75v3.6c0,1.33.67,2,2,2h91.9l2.75-2.75,2.75,2.75h42.55l1.55-1.55,1.55,1.55h34.95c1.33,0,2-.67,2-2v-22.9l-2.4-2.4,2.4-2.4v-5.3l-.05-.7.05.05M187.95,5.05l.05.95v33c0,2.67-1.33,4-4,4H6c-2.67,0-4-1.33-4-4V6l.1-.95c.27-2.03,1.57-3.05,3.9-3.05h178c2.33,0,3.65,1.02,3.95,3.05" fill="#b7916a"/><path d="M187.95,5.05c-.3-2.03-1.62-3.05-3.95-3.05H6c-2.33,0-3.63,1.02-3.9,3.05l-.1.95v33c0,2.67,1.33,4,4,4h178c2.67,0,4-1.33,4-4V6l-.05-.95M0,39.25V6C0,2,2,0,6,0h178c4,0,6,2,6,6v33.25c-.1,3.83-2.1,5.75-6,5.75H6c-3.9,0-5.9-1.92-6-5.75" fill="#864"/><path d="M0,39.25c.1,3.83,2.1,5.75,6,5.75h178c3.9,0,5.9-1.92,6-5.75v3.75c0,4-2,6-6,6H6c-4,0-6-2-6-6v-3.75" fill="#6d543a"/></g></svg>