<?xml version="1.0" encoding="UTF-8"?><svg id="Calque_2" xmlns="http://www.w3.org/2000/svg" viewBox="0 0 190 45"><g id="Calque_1-2"><path d="M186,6v5.3l-2.4,2.4,2.4,2.4v22.9c0,1.3-.62,1.97-1.85,2h-35.1l-1.55-1.55-1.55,1.55h-42.55l-2.75-2.75-2.75,2.75H5.9c-1.27-.03-1.9-.7-1.9-2v-3.6l2.75-2.75-2.75-2.75V6l.05-.5.05-.2c.17-.87.8-1.3,1.9-1.3h17.05l2.25,2.25,2.25-2.25h9.35l2.8,2.8,2.8-2.8h141.5c1.1,0,1.77.45,2,1.35l-.05-.05.05.7" fill="#97714a"/><path d="M186,6l-.05-.7.05.05c-.23-.9-.9-1.35-2-1.35H42.5l-2.8,2.8-2.8-2.8h-9.35l-2.25,2.25-2.25-2.25H6c-1.1,0-1.73.43-1.9,1.3l-.05.2-.05.5v23.9l2.75,2.75-2.75,2.75v3.6c0,1.3.63,1.97,1.9,2h92l2.75-2.75,2.75,2.75h42.55l1.55-1.55,1.55,1.55h35.1c1.23-.03,1.85-.7,1.85-2v-22.9l-2.4-2.4,2.4-2.4v-5.3M187.95,5.05l.05.95v33l-.05,1c-.3,2-1.62,3-3.95,3H6c-2.33,0-3.63-1-3.9-3l-.1-1V6l.1-.95c.27-2.03,1.57-3.05,3.9-3.05h178c2.33,0,3.65,1.02,3.95,3.05" fill="#b7916a"/><path d="M187.95,5.05c-.3-2.03-1.62-3.05-3.95-3.05H6c-2.33,0-3.63,1.02-3.9,3.05l-.1.95v33l.1,1c.27,2,1.57,3,3.9,3h178c2.33,0,3.65-1,3.95-3l.05-1V6l-.05-.95M190,39.25c-.1,3.83-2.1,5.75-6,5.75H5.1c-3.13-.27-4.82-1.98-5.05-5.15l-.05-.6V6C0,2,2,0,6,0h178c4,0,6,2,6,6v33.25" fill="#864"/></g></svg>