<?xml version="1.0" encoding="UTF-8"?><svg id="Calque_2" xmlns="http://www.w3.org/2000/svg" viewBox="0 0 100 100"><g id="Calque_1-2"><path d="M54.35,4l-2.85,2.9-2.9-2.9H7.05c-2.03,0-3.05,1.02-3.05,3.05v61.2l1.75,1.75-1.75,1.7v4.95l2.8,2.8-2.8,2.8v10.7c0,2.03,1.02,3.05,3.05,3.05h8.8l2.2-2.2,2.2,2.2h72.65c2.07,0,3.1-1.02,3.1-3.05v-5.7l-4.1-4.1,4.1-4.15V23.85l-3.1-3.1,3.1-3.15V7.05c0-2.03-1.03-3.05-3.1-3.05h-38.55M2,92.95V7.05c0-3.37,1.68-5.05,5.05-5.05h85.85c3.4,0,5.1,1.68,5.1,5.05v85.9c0,3.37-1.7,5.05-5.1,5.05H7.05c-3.37,0-5.05-1.68-5.05-5.05" fill="#b7916a"/><path d="M54.35,4h38.55c2.07,0,3.1,1.02,3.1,3.05v10.55l-3.1,3.15,3.1,3.1v55.15l-4.1,4.15,4.1,4.1v5.7c0,2.03-1.03,3.05-3.1,3.05H20.25l-2.2-2.2-2.2,2.2H7.05c-2.03,0-3.05-1.02-3.05-3.05v-10.7l2.8-2.8-2.8-2.8v-4.95l1.75-1.7-1.75-1.75V7.05c0-2.03,1.02-3.05,3.05-3.05h41.55l2.9,2.9,2.85-2.9" fill="#97714a"/><path d="M98.15,1.85c1.23,1.13,1.85,2.87,1.85,5.2v85.9c0,2.33-.62,4.07-1.85,5.2-1.13,1.23-2.88,1.85-5.25,1.85H7.05c-4.7,0-7.05-2.35-7.05-7.05V7.05C0,2.35,2.35,0,7.05,0h85.85c2.37,0,4.12.62,5.25,1.85M2,92.95c0,3.37,1.68,5.05,5.05,5.05h85.85c3.4,0,5.1-1.68,5.1-5.05V7.05c0-3.37-1.7-5.05-5.1-5.05H7.05c-3.37,0-5.05,1.68-5.05,5.05v85.9" fill="#864"/></g></svg>