<?xml version="1.0" encoding="UTF-8"?><svg id="Calque_2" xmlns="http://www.w3.org/2000/svg" viewBox="0 0 92 94"><g id="Calque_1-2"><path d="M92,4.95c-.03-1.97-1.07-2.95-3.1-2.95h-38.55l-2.85,2.9-2.9-2.9H3.05C1.05,2,.03,2.98,0,4.95v-1.9C0,1.02,1.02,0,3.05,0h41.55l2.9,2.9,2.85-2.9h38.55c2.07,0,3.1,1.02,3.1,3.05v1.9M.75,67l1,1-1.75,1.7v-2l.75-.7M1.8,76.45l1,1-2.8,2.8v-2l1.8-1.8M92,85.25l-4.1-4.1,1-1,3.1,3.1v2M92,21.85l-3.1-3.1,1-1,2.1,2.1v2"/><path d="M92,21.85v55.15l-3.1,3.15-1,1,4.1,4.1v5.7c0,2.03-1.03,3.05-3.1,3.05H16.25l-2.2-2.2-2.2,2.2H3.05c-2.03,0-3.05-1.02-3.05-3.05v-10.7l2.8-2.8-1-1-1.8-1.8v-4.95l1.75-1.7-1-1-.75-.75V4.95c.03-1.97,1.05-2.95,3.05-2.95h41.55l2.9,2.9,2.85-2.9h38.55c2.03,0,3.07.98,3.1,2.95v10.65l-2.1,2.15-1,1,3.1,3.1" fill="#97714a"/></g></svg>